<svg xmlns="http://www.w3.org/2000/svg" version="1.0" width="1000.000000pt" height="244.000000pt" viewBox="0 0 1000.000000 244.000000" preserveAspectRatio="xMidYMid meet">

<g transform="translate(0.000000,244.000000) scale(0.100000,-0.100000)" fill="#f44336" stroke="none">
<path d="M10 2425 c0 -4 110 -308 245 -677 l246 -671 -1 -518 0 -519 160 0 160 0 0 510 0 510 181 592 c100 326 194 635 209 686 l28 92 -166 -2 -166 -3 -37 -150 c-138 -566 -199 -840 -199 -901 0 -54 -17 -40 -30 24 -19 96 -85 330 -194 687 l-103 340 -167 3 c-91 1 -166 0 -166 -3z" fill="#f44336"/>
<path d="M1430 1235 l0 -1195 155 0 155 0 0 1195 0 1195 -155 0 -155 0 0 -1195z" fill="#f44336"/>
<path d="M1940 2427 c0 -2 22 -132 49 -288 28 -156 75 -430 106 -609 31 -179 64 -374 75 -435 48 -274 180 -1043 180 -1049 0 -3 59 -6 130 -6 72 0 130 3 130 8 0 4 40 244 90 534 101 597 133 815 155 1048 8 90 17 165 19 167 5 5 9 -24 26 -192 21 -210 193 -1328 236 -1538 l6 -27 124 0 c74 0 124 4 124 10 0 5 29 175 65 377 36 203 81 458 101 568 19 110 66 378 105 595 38 217 86 485 105 595 19 110 38 210 41 223 l5 22 -154 0 -153 0 -17 -122 c-9 -68 -44 -307 -78 -533 -67 -453 -115 -827 -126 -980 -6 -85 -21 -169 -23 -127 -8 149 -67 569 -194 1362 l-63 395 -122 3 c-119 3 -122 2 -127 -20 -3 -13 -48 -282 -100 -598 -89 -541 -134 -863 -151 -1078 -3 -51 -10 -90 -14 -85 -4 4 -15 97 -24 207 -10 109 -26 253 -36 320 -10 66 -56 376 -101 689 l-84 567 -152 0 c-84 0 -153 -1 -153 -3z" fill="#f44336"/>
<path d="M4013 1438 c3 -985 3 -994 25 -1076 27 -102 52 -151 105 -209 87 -95 189 -133 373 -140 151 -6 241 9 339 56 121 58 180 137 221 296 17 65 18 145 21 1068 l4 997 -155 0 -155 0 -3 -977 c-4 -1058 -2 -1023 -59 -1088 -38 -43 -86 -59 -176 -59 -139 1 -201 60 -223 209 -6 42 -10 436 -10 993 l0 922 -155 0 -156 0 4 -992z" fill="#f44336"/>
<path d="M6414 2372 l-141 -3 -369 -312 -369 -312 0 -96 c0 -89 2 -99 28 -136 16 -23 50 -52 80 -69 43 -23 64 -28 122 -28 58 0 79 5 122 28 29 16 64 46 80 68 23 35 28 52 32 138 l6 99 245 272 c285 316 314 349 309 352 -2 1 -67 1 -145 -1z" fill="#f44336"/>
<path d="M7683 2372 c-117 -2 -153 -6 -153 -15 0 -7 -18 -150 -40 -318 -22 -167 -40 -334 -40 -370 0 -162 90 -255 246 -253 141 1 234 96 234 240 0 61 -80 707 -89 714 -3 3 -75 4 -158 2z" fill="#f44336"/>
<path d="M8810 2374 c0 0 126 -140 280 -310 l279 -309 1 -77 c0 -165 90 -263 240 -262 70 0 123 18 166 57 52 45 66 81 72 178 l5 86 -204 174 c-112 96 -278 237 -369 314 l-164 140 -153 5 c-84 3 -153 5 -153 4z" fill="#f44336"/>
<path d="M6752 2153 c-76 -120 -167 -262 -202 -316 l-62 -98 4 -87 c3 -67 9 -96 27 -128 46 -81 159 -126 263 -105 124 26 191 119 187 260 -2 76 -1 80 115 380 64 166 116 304 116 307 0 2 -69 4 -154 4 l-154 0 -140 -217z" fill="#f44336"/>
<path d="M8179 2353 c5 -10 59 -148 120 -307 106 -275 111 -292 111 -364 0 -41 5 -92 11 -113 60 -199 384 -207 454 -10 8 24 15 74 15 112 l0 69 -202 315 -202 315 -158 0 c-148 0 -158 -1 -149 -17z" fill="#f44336"/>
<path d="M5523 1175 c-11 -8 -13 -101 -11 -530 l3 -520 147 -3 147 -3 7 25 c3 13 4 144 2 290 -1 146 -1 266 2 266 3 0 29 -98 59 -217 30 -120 63 -251 74 -291 l19 -73 136 3 136 3 73 284 c39 156 74 286 77 289 4 3 6 -126 6 -286 l0 -292 150 0 150 0 0 530 0 529 -217 3 c-134 2 -221 -1 -228 -7 -7 -5 -41 -122 -75 -260 -35 -137 -66 -253 -70 -258 -4 -4 -37 111 -74 255 -37 145 -69 264 -70 266 -9 8 -431 6 -443 -3z m431 -22 c17 -56 146 -568 146 -581 0 -39 16 15 86 289 41 162 78 297 83 302 4 4 99 6 212 5 l204 -3 3 -513 2 -512 -135 0 -135 0 -2 366 -3 365 -84 -333 c-47 -183 -89 -348 -93 -365 l-9 -33 -122 0 -122 0 -89 353 c-49 193 -92 355 -95 359 -3 4 -5 -155 -3 -352 l2 -360 -135 0 -135 0 0 508 c0 280 3 512 7 515 3 4 98 7 209 7 184 0 203 -2 208 -17z" fill="#f44336"/>
<path d="M7159 1182 c-14 -3 -399 -1010 -399 -1045 0 -15 15 -17 180 -17 l179 0 24 77 24 78 163 0 164 0 24 -77 23 -78 185 0 c167 0 184 2 184 17 0 14 -376 1030 -385 1041 -3 4 -347 8 -366 4z m349 -24 c8 -11 367 -955 379 -1000 5 -17 -8 -18 -163 -18 l-169 0 -24 80 -24 80 -177 0 -177 0 -23 -80 -23 -80 -163 0 c-90 0 -164 3 -164 7 0 14 373 998 383 1011 7 9 54 12 172 12 118 0 165 -3 173 -12z" fill="#f44336"/>
<path d="M7326 860 c-10 -26 -96 -312 -96 -321 0 -5 48 -9 106 -9 92 0 105 2 100 16 -3 8 -26 81 -51 162 -25 81 -47 152 -49 157 -2 6 -6 3 -10 -5z m47 -179 c20 -66 37 -122 37 -126 0 -3 -35 -5 -77 -3 -63 2 -77 6 -75 18 12 50 68 230 73 230 3 0 22 -54 42 -119z" fill="#f44336"/>
<path d="M7983 1175 c-11 -8 -13 -101 -11 -530 l3 -520 174 -3 c133 -2 176 1 183 10 4 7 8 100 8 207 l0 193 28 -6 c39 -10 56 -35 163 -231 l94 -175 193 0 c156 0 194 3 198 14 9 24 -163 341 -218 401 l-49 54 39 20 c149 76 197 297 97 448 -27 41 -47 58 -102 85 l-68 33 -359 5 c-232 3 -364 1 -373 -5z m725 -25 c117 -26 197 -119 209 -242 13 -147 -68 -268 -212 -313 -18 -6 -17 -8 10 -19 56 -24 121 -111 202 -269 43 -84 80 -155 81 -159 2 -5 -79 -8 -180 -8 l-183 1 -100 185 c-54 103 -109 193 -122 201 -12 8 -40 17 -63 20 l-40 6 0 -207 0 -206 -160 0 -160 0 0 508 c0 280 3 512 8 516 11 13 649 0 710 -14z" fill="#f44336"/>
<path d="M8310 850 l0 -103 103 5 c105 5 159 21 171 53 15 40 6 91 -20 116 -23 22 -35 24 -140 28 l-114 3 0 -102z m223 69 c30 -16 37 -28 37 -65 0 -61 -44 -83 -167 -84 l-63 0 0 80 0 80 86 0 c47 0 95 -5 107 -11z" fill="#f44336"/>
<path d="M9004 1177 c-19 -11 -21 -266 -2 -285 8 -8 58 -12 160 -12 l148 0 2 -377 3 -378 174 -3 c133 -2 176 1 183 10 4 7 8 178 8 381 l0 367 150 0 c137 0 150 2 160 19 12 23 13 250 2 269 -7 10 -114 13 -491 15 -265 1 -489 -2 -497 -6z m971 -142 l0 -130 -157 -3 -158 -3 0 -379 0 -380 -165 0 -165 0 0 383 0 382 -157 0 -158 0 -3 119 c-1 66 0 126 2 133 4 11 95 13 483 11 l478 -3 0 -130z" fill="#f44336"/>
</g>
</svg>