<svg width="92" height="92" viewBox="0 0 92 92" fill="none" xmlns="http://www.w3.org/2000/svg">
<g id="Frame" clip-path="url(#clip0_1026_13920)">
<g id="&#208;&#161;&#208;&#187;&#208;&#190;&#208;&#185; 4">
<path id="Vector" d="M46 92C71.4051 92 92 71.4051 92 46C92 20.5949 71.4051 0 46 0C20.5949 0 0 20.5949 0 46C0 71.4051 20.5949 92 46 92Z" fill="#FFF3E1"/>
</g>
<g id="&#208;&#161;&#208;&#187;&#208;&#190;&#208;&#185; 3">
<path id="Vector_2" d="M25.7081 26.309H59.7868V69.9785H25.7081C25.2406 69.9785 24.8613 69.5992 24.8613 69.1317V27.1558C24.8613 26.6883 25.2406 26.309 25.7081 26.309Z" fill="white" stroke="#1D1D1B" stroke-width="0.589283" stroke-linecap="round" stroke-linejoin="round"/>
<path id="Vector_3" d="M67.1402 69.9785L63.92 68.706C63.6265 68.59 63.3006 68.59 63.0083 68.706L59.7881 69.9785V26.309H66.131C66.689 26.309 67.1402 26.7614 67.1402 27.3182V69.9774V69.9785Z" fill="#D5E2FE" stroke="#1D1D1B" stroke-width="0.589283" stroke-miterlimit="10"/>
<path id="Vector_4" d="M33.1113 31.3224V23.1479C33.1113 17.8861 37.4161 13.5813 42.6779 13.5813C47.9397 13.5813 52.2445 17.8861 52.2445 23.1479V31.3224" stroke="#1D1D1B" stroke-width="0.580003" stroke-miterlimit="10"/>
<path id="Vector_5" d="M43.9922 10.9819C45.267 10.3497 46.6996 9.99475 48.2123 9.99475C53.4741 9.99475 57.7788 14.2995 57.7788 19.5613" stroke="#1D1D1B" stroke-width="0.580003" stroke-linecap="round" stroke-linejoin="round"/>
<path id="Vector_6" d="M33.111 32.3758C33.7952 32.3758 34.3498 31.8212 34.3498 31.137C34.3498 30.4527 33.7952 29.8981 33.111 29.8981C32.4267 29.8981 31.8721 30.4527 31.8721 31.137C31.8721 31.8212 32.4267 32.3758 33.111 32.3758Z" fill="#FFB904"/>
<path id="Vector_7" d="M52.1249 32.3758C52.8091 32.3758 53.3638 31.8212 53.3638 31.137C53.3638 30.4527 52.8091 29.8981 52.1249 29.8981C51.4407 29.8981 50.886 30.4527 50.886 31.137C50.886 31.8212 51.4407 32.3758 52.1249 32.3758Z" fill="#FFB904"/>
</g>
<path id="Vector_8" d="M53.5014 52.347L45.0308 37.6366C44.8191 37.2762 44.517 36.9774 44.1542 36.7697C43.7915 36.5621 43.3808 36.4529 42.9628 36.4529C42.5449 36.4529 42.1342 36.5621 41.7714 36.7697C41.4087 36.9774 41.1065 37.2762 40.8948 37.6366L32.4243 52.347C32.2206 52.6956 32.1133 53.092 32.1133 53.4957C32.1133 53.8995 32.2206 54.2959 32.4243 54.6445C32.6332 55.0071 32.9349 55.3076 33.2983 55.5151C33.6617 55.7225 34.0738 55.8296 34.4923 55.8253H51.4334C51.8515 55.8293 52.2632 55.722 52.6262 55.5146C52.9893 55.3071 53.2906 55.0068 53.4994 54.6445C53.7034 54.2961 53.8111 53.8997 53.8114 53.496C53.8117 53.0923 53.7047 52.6957 53.5014 52.347ZM42.1879 44.2019C42.1879 43.9964 42.2696 43.7993 42.4149 43.6539C42.5602 43.5086 42.7573 43.427 42.9628 43.427C43.1683 43.427 43.3654 43.5086 43.5108 43.6539C43.6561 43.7993 43.7377 43.9964 43.7377 44.2019V48.0763C43.7377 48.2819 43.6561 48.479 43.5108 48.6243C43.3654 48.7696 43.1683 48.8512 42.9628 48.8512C42.7573 48.8512 42.5602 48.7696 42.4149 48.6243C42.2696 48.479 42.1879 48.2819 42.1879 48.0763V44.2019ZM42.9628 52.7257C42.7329 52.7257 42.5082 52.6575 42.3171 52.5298C42.1259 52.4021 41.9769 52.2206 41.889 52.0082C41.801 51.7958 41.778 51.5621 41.8228 51.3366C41.8677 51.1111 41.9784 50.904 42.1409 50.7415C42.3035 50.5789 42.5106 50.4682 42.7361 50.4234C42.9615 50.3785 43.1952 50.4015 43.4076 50.4895C43.62 50.5775 43.8016 50.7265 43.9293 50.9176C44.057 51.1087 44.1252 51.3335 44.1252 51.5634C44.1252 51.8716 44.0027 52.1673 43.7847 52.3853C43.5667 52.6032 43.2711 52.7257 42.9628 52.7257Z" fill="#FF8E00"/>
</g>
<defs>
<clipPath id="clip0_1026_13920">
<rect width="92" height="92" fill="white"/>
</clipPath>
</defs>
</svg>
