<svg width="27" height="28" viewBox="0 0 27 28" fill="none" xmlns="http://www.w3.org/2000/svg">
<path fill-rule="evenodd" clip-rule="evenodd" d="M2.5 8.5002C2.5 7.62498 2.84768 6.78561 3.46655 6.16674C4.08542 5.54787 4.92479 5.2002 5.8 5.2002H21.2C22.0752 5.2002 22.9146 5.54787 23.5335 6.16674C24.1523 6.78561 24.5 7.62498 24.5 8.5002V9.6002H2.5V8.5002ZM2.5 11.8002V19.5002C2.5 20.3754 2.84768 21.2148 3.46655 21.8336C4.08542 22.4525 4.92479 22.8002 5.8 22.8002H21.2C22.0752 22.8002 22.9146 22.4525 23.5335 21.8336C24.1523 21.2148 24.5 20.3754 24.5 19.5002V11.8002H2.5ZM8 14.0002C7.70826 14.0002 7.42847 14.1161 7.22218 14.3224C7.01589 14.5287 6.9 14.8085 6.9 15.1002C6.9 15.3919 7.01589 15.6717 7.22218 15.878C7.42847 16.0843 7.70826 16.2002 8 16.2002H13.5C13.7917 16.2002 14.0715 16.0843 14.2778 15.878C14.4841 15.6717 14.6 15.3919 14.6 15.1002C14.6 14.8085 14.4841 14.5287 14.2778 14.3224C14.0715 14.1161 13.7917 14.0002 13.5 14.0002H8Z" fill="#FC2F3D"/>
</svg>
