<svg width="28" height="28" viewBox="0 0 28 28" fill="none" xmlns="http://www.w3.org/2000/svg">
<g clip-path="url(#clip0_510_52395)">
<path d="M10.4214 22.9749C8.71242 21.3136 7.03613 19.6842 5.34283 18.0385C5.42237 17.9501 5.48355 17.874 5.5522 17.8053C6.69489 16.6613 7.83961 15.5186 8.98161 14.3739C9.67973 13.6737 10.5226 13.325 11.5083 13.3236C14.3354 13.3209 17.1619 13.3209 19.989 13.3236C20.9169 13.3243 21.4043 14.1971 20.9387 15.0149C20.7409 15.3622 20.4173 15.454 20.0455 15.4533C18.6322 15.452 17.2183 15.4486 15.8051 15.4554C15.2116 15.4588 14.8439 15.8904 14.9085 16.4791C14.9595 16.9488 15.2803 17.2771 15.7616 17.2819C17.1972 17.2955 18.6336 17.2934 20.0699 17.2785C20.2011 17.2771 20.3554 17.1629 20.4581 17.061C21.9502 15.5784 23.4497 14.1026 24.9146 12.5936C25.4135 12.0797 25.9968 12.0606 26.6025 12.1605C27.151 12.251 27.3815 12.9212 27.0395 13.361C25.3388 15.5471 23.6292 17.7271 21.9209 19.9071C21.6939 20.1967 21.3853 20.2898 21.023 20.2892C18.501 20.2837 15.9798 20.2905 13.4579 20.2803C13.1975 20.2797 13.0201 20.3599 12.8413 20.5427C12.0514 21.351 11.2486 22.1463 10.4214 22.9749Z" fill="#FC2F3D"/>
<path d="M10.6681 24.5524C10.5709 24.7169 10.5118 24.8814 10.4003 24.9949C9.61656 25.7936 8.82463 26.5856 8.02931 27.3721C7.72749 27.6711 7.44471 27.6684 7.14357 27.368C5.10292 25.3314 3.06499 23.2921 1.02842 21.2515C0.72864 20.951 0.723202 20.6641 1.01822 20.3657C1.80471 19.5697 2.59663 18.7785 3.39264 17.9913C3.69717 17.6902 3.97179 17.6895 4.27769 17.9947C6.31902 20.0306 8.35695 22.0699 10.3908 24.1133C10.5036 24.2261 10.5669 24.3886 10.6688 24.5524H10.6681Z" fill="#FC2F3D"/>
<path d="M14.0008 1.93354C14.0008 1.73991 14.0247 1.54846 13.996 1.36351C13.9266 0.913406 14.1283 0.787696 14.6147 0.800701C15.0437 0.81226 15.2502 0.901124 15.1888 1.31944C15.1601 1.51739 15.184 1.72257 15.184 1.836C15.7725 2.08598 16.2924 2.29766 16.8019 2.52813C17.1057 2.66612 17.1639 2.87636 16.9454 3.13139C16.8968 3.18847 16.8688 3.25927 16.8306 3.32285C16.6169 3.67975 16.3221 3.75127 15.9463 3.53742C15.4679 3.2636 14.952 3.12561 14.3867 3.1993C13.9529 3.25566 13.5734 3.40882 13.449 3.83797C13.3182 4.29024 13.6133 4.56333 13.9984 4.75478C14.3484 4.92962 14.7272 5.05678 15.0931 5.20488C15.4153 5.33565 15.7454 5.45197 16.0571 5.6008C16.8601 5.98515 17.3481 6.56746 17.2962 7.4207C17.242 8.31151 16.7508 8.9574 15.8514 9.33164C15.6497 9.41545 15.4328 9.46963 15.1848 9.5491C15.1848 9.68348 15.1848 9.82653 15.1848 9.9703C15.1832 10.6473 14.964 10.8105 14.2376 10.6335C14.1371 10.609 14.0295 10.4377 14.0151 10.325C13.9824 10.0678 14.0048 9.80558 13.9059 9.63363C13.2792 9.32514 12.6485 9.02387 12.0289 8.70526C11.7451 8.55859 11.7331 8.35847 11.9492 8.13017C12.1453 7.92282 12.3192 7.69813 12.4659 7.52402C13.0408 7.77688 13.5327 8.07598 14.0741 8.20386C14.4569 8.29417 14.9512 8.24071 15.3172 8.0926C15.9495 7.83685 15.9623 7.13966 15.3818 6.78854C15.0908 6.61226 14.7559 6.49522 14.4385 6.3565C13.9625 6.14843 13.4649 5.97287 13.0097 5.73229C12.2386 5.32409 11.8391 4.70349 11.9165 3.87771C11.989 3.09599 12.4754 2.56281 13.2249 2.2153C13.4649 2.10404 13.7273 2.03179 14.0008 1.93354Z" fill="#FC2F3D"/>
</g>
<defs>
<clipPath id="clip0_510_52395">
<rect width="26.4" height="26.7949" fill="white" transform="translate(0.799988 0.799805)"/>
</clipPath>
</defs>
</svg>
