<svg width="92" height="92" viewBox="0 0 92 92" fill="none" xmlns="http://www.w3.org/2000/svg">
<g id="Frame" clip-path="url(#clip0_1024_12974)">
<g id="&#208;&#161;&#208;&#187;&#208;&#190;&#208;&#185; 4">
<path id="Vector" d="M46 92C71.4051 92 92 71.4051 92 46C92 20.5949 71.4051 0 46 0C20.5949 0 0 20.5949 0 46C0 71.4051 20.5949 92 46 92Z" fill="#FAD5CE"/>
</g>
<g id="&#208;&#161;&#208;&#187;&#208;&#190;&#208;&#185; 3">
<path id="Vector_2" d="M25.8469 26.3089H59.9256V69.9785H25.8469C25.3794 69.9785 25.0001 69.5991 25.0001 69.1317V27.1557C25.0001 26.6882 25.3794 26.3089 25.8469 26.3089Z" fill="white" stroke="#1D1D1B" stroke-width="0.589283" stroke-linecap="round" stroke-linejoin="round"/>
<path id="Vector_3" d="M67.2785 69.9785L64.0584 68.7059C63.7649 68.5899 63.4389 68.5899 63.1466 68.7059L59.9264 69.9785V26.3089H66.2693C66.8273 26.3089 67.2785 26.7613 67.2785 27.3181V69.9773V69.9785Z" fill="#D5E2FE" stroke="#1D1D1B" stroke-width="0.589283" stroke-miterlimit="10"/>
<path id="Vector_4" d="M33.25 31.3224V23.1478C33.25 17.886 37.5547 13.5812 42.8165 13.5812C48.0783 13.5812 52.3831 17.886 52.3831 23.1478V31.3224" stroke="#1D1D1B" stroke-width="0.580003" stroke-miterlimit="10"/>
<path id="Vector_5" d="M44.1306 10.9818C45.4055 10.3496 46.8381 9.99463 48.3507 9.99463C53.6125 9.99463 57.9173 14.2994 57.9173 19.5612" stroke="#1D1D1B" stroke-width="0.580003" stroke-linecap="round" stroke-linejoin="round"/>
<path id="Vector_6" d="M33.2497 32.3757C33.9339 32.3757 34.4886 31.821 34.4886 31.1368C34.4886 30.4526 33.9339 29.8979 33.2497 29.8979C32.5655 29.8979 32.0108 30.4526 32.0108 31.1368C32.0108 31.821 32.5655 32.3757 33.2497 32.3757Z" fill="#D5E2FE"/>
<path id="Vector_7" d="M52.2636 32.3757C52.9478 32.3757 53.5025 31.821 53.5025 31.1368C53.5025 30.4526 52.9478 29.8979 52.2636 29.8979C51.5794 29.8979 51.0247 30.4526 51.0247 31.1368C51.0247 31.821 51.5794 32.3757 52.2636 32.3757Z" fill="#D5E2FE"/>
</g>
<g id="Vector_8">
<path d="M31 38.2508H56H31ZM40.3761 44.5V53.8746V44.5ZM46.6254 44.5V53.8746V44.5ZM32.5627 38.2508L34.1254 57C34.1254 57.8295 34.4553 58.6238 35.0404 59.2104C35.627 59.797 36.4213 60.1254 37.2508 60.1254H49.7508C50.5802 60.1254 51.3746 59.7954 51.9611 59.2104C52.5477 58.6238 52.8761 57.8295 52.8761 57L54.4388 38.2508M38.815 38.2508V33.5627C38.815 33.1487 38.98 32.7516 39.2732 32.4583C39.5665 32.165 39.9637 32 40.3777 32H46.6269C47.0409 32 47.438 32.165 47.7313 32.4583C48.0246 32.7516 48.1896 33.1487 48.1896 33.5627V38.2508" fill="white"/>
<path d="M31 38.2508H56M40.3761 44.5V53.8746M46.6254 44.5V53.8746M32.5627 38.2508L34.1254 57C34.1254 57.8295 34.4553 58.6238 35.0404 59.2104C35.627 59.797 36.4213 60.1254 37.2508 60.1254H49.7508C50.5802 60.1254 51.3746 59.7954 51.9611 59.2104C52.5477 58.6238 52.8761 57.8295 52.8761 57L54.4388 38.2508M38.815 38.2508V33.5627C38.815 33.1487 38.98 32.7516 39.2732 32.4583C39.5665 32.165 39.9637 32 40.3777 32H46.6269C47.0409 32 47.438 32.165 47.7313 32.4583C48.0246 32.7516 48.1896 33.1487 48.1896 33.5627V38.2508" stroke="#FC2F3D" stroke-width="3.12538" stroke-linecap="round" stroke-linejoin="round"/>
</g>
</g>
<defs>
<clipPath id="clip0_1024_12974">
<rect width="92" height="92" fill="white"/>
</clipPath>
</defs>
</svg>
