<svg width="92" height="92" viewBox="0 0 92 92" fill="none" xmlns="http://www.w3.org/2000/svg">
<g id="Frame" clip-path="url(#clip0_1026_15494)">
<g id="&#208;&#161;&#208;&#187;&#208;&#190;&#208;&#185; 4">
<path id="Vector" d="M46 92C71.4051 92 92 71.4051 92 46C92 20.5949 71.4051 0 46 0C20.5949 0 0 20.5949 0 46C0 71.4051 20.5949 92 46 92Z" fill="#FAD5CE"/>
</g>
<g id="&#208;&#161;&#208;&#187;&#208;&#190;&#208;&#185; 3">
<g id="Group">
<path id="Vector_2" d="M76.6055 18.3987L43.9258 12.8654C42.0346 12.5452 40.2419 13.8188 39.9217 15.71L32.2246 61.1697C31.9044 63.0609 33.1779 64.8536 35.0691 65.1738L67.7488 70.707C69.64 71.0272 71.4327 69.7537 71.7529 67.8625L79.45 22.4028C79.7702 20.5116 78.4967 18.7189 76.6055 18.3987Z" fill="white" stroke="#1D1D1B" stroke-width="0.928004" stroke-miterlimit="10" stroke-linecap="round"/>
<path id="Vector_3" d="M34.2596 30.5031L15.1877 46.0412C13.7006 47.2527 13.4773 49.4404 14.6888 50.9274L36.6686 77.9062C37.8802 79.3933 40.0678 79.6167 41.5549 78.4052L60.6268 62.8671C62.1139 61.6555 62.3373 59.4679 61.1257 57.9808L39.1459 31.002C37.9343 29.515 35.7467 29.2916 34.2596 30.5031Z" fill="white" stroke="#1D1D1B" stroke-width="0.729643" stroke-miterlimit="10" stroke-linecap="round"/>
<path id="Vector_4" d="M35.2763 23.5093L14.6926 40.279C13.2055 41.4905 12.9821 43.6782 14.1937 45.1652L37.8037 74.145C39.0153 75.6321 41.2029 75.8555 42.69 74.6439L63.2737 57.8742C64.7608 56.6627 64.9841 54.475 63.7726 52.988L40.1625 24.0082C38.951 22.5211 36.7634 22.2977 35.2763 23.5093Z" fill="white" stroke="#1D1D1B" stroke-width="0.774883" stroke-miterlimit="10" stroke-linecap="round"/>
<g id="Group_2">
<path id="Vector_5" d="M65.6637 68.6875C65.6637 70.598 64.1012 72.1606 62.1906 72.1606H29.0458C27.1353 72.1606 25.5728 70.598 25.5728 68.6875V22.5819C25.5728 20.6714 27.1353 19.1089 29.0458 19.1089H55.8408V28.4956H65.6637V68.6875Z" fill="white" stroke="#1D1D1B" stroke-width="0.928004" stroke-miterlimit="10" stroke-linecap="round"/>
<path id="Vector_6" d="M65.6633 28.1511L56.1953 19.1089" stroke="#1D1D1B" stroke-width="0.928004" stroke-miterlimit="10" stroke-linecap="round"/>
</g>
<g id="Group_3">
<path id="Vector_7" d="M30.3101 26.606H46.8749" stroke="#D5E2FE" stroke-width="1.16001" stroke-miterlimit="10" stroke-linecap="round"/>
<path id="Vector_8" d="M30.3101 63.624H46.8749" stroke="#D5E2FE" stroke-width="1.16001" stroke-miterlimit="10" stroke-linecap="round"/>
<path id="Vector_9" d="M30.3101 30.7334H53.7886" stroke="#D5E2FE" stroke-width="1.16001" stroke-miterlimit="10" stroke-linecap="round"/>
<path id="Vector_10" d="M30.3335 53.2456H53.812" stroke="#D5E2FE" stroke-width="1.16001" stroke-miterlimit="10" stroke-linecap="round"/>
<path id="Vector_11" d="M30.3335 58.4341H53.812" stroke="#D5E2FE" stroke-width="1.16001" stroke-miterlimit="10" stroke-linecap="round"/>
<path id="Vector_12" d="M30.355 44.9907H57.6" stroke="#D5E2FE" stroke-width="1.16001" stroke-miterlimit="10" stroke-linecap="round"/>
<path id="Vector_13" d="M30.355 49.1182H50.5356" stroke="#D5E2FE" stroke-width="1.16001" stroke-miterlimit="10" stroke-linecap="round"/>
<path id="Vector_14" d="M58.8244 33.9404H31.1049C30.3361 33.9404 29.7129 34.5637 29.7129 35.3324V40.3901C29.7129 41.1588 30.3361 41.7821 31.1049 41.7821H58.8244C59.5932 41.7821 60.2164 41.1588 60.2164 40.3901V35.3324C60.2164 34.5637 59.5932 33.9404 58.8244 33.9404Z" fill="#D5E2FE"/>
</g>
</g>
<path id="Vector_15" d="M51.7131 72.8853L50.9011 75.5324C50.494 76.8583 51.2468 78.2758 52.5727 78.6819C53.8986 79.089 55.3161 78.3362 55.7221 77.0103L55.7523 76.9128L58.4342 68.1664C58.7636 67.0911 58.1535 65.9404 57.0781 65.6109C56.0028 65.2815 55.1398 65.9798 54.8092 67.0551L52.568 74.3643C52.2386 75.4396 52.8012 76.769 54.1306 76.3711C54.489 76.2331 54.7639 75.9384 54.8765 75.5707L57.0967 68.3323" stroke="#D01531" stroke-width="0.589283" stroke-linecap="round" stroke-linejoin="round"/>
</g>
<g id="Vector_16">
<path d="M34 38.2508H59H34ZM43.3761 44.5V53.8746V44.5ZM49.6254 44.5V53.8746V44.5ZM35.5627 38.2508L37.1254 57C37.1254 57.8295 37.4553 58.6238 38.0404 59.2104C38.627 59.797 39.4213 60.1254 40.2508 60.1254H52.7508C53.5802 60.1254 54.3746 59.7954 54.9611 59.2104C55.5477 58.6238 55.8761 57.8295 55.8761 57L57.4388 38.2508M41.815 38.2508V33.5627C41.815 33.1487 41.98 32.7516 42.2732 32.4583C42.5665 32.165 42.9637 32 43.3777 32H49.6269C50.0409 32 50.438 32.165 50.7313 32.4583C51.0246 32.7516 51.1896 33.1487 51.1896 33.5627V38.2508" fill="white"/>
<path d="M34 38.2508H59M43.3761 44.5V53.8746M49.6254 44.5V53.8746M35.5627 38.2508L37.1254 57C37.1254 57.8295 37.4553 58.6238 38.0404 59.2104C38.627 59.797 39.4213 60.1254 40.2508 60.1254H52.7508C53.5802 60.1254 54.3746 59.7954 54.9611 59.2104C55.5477 58.6238 55.8761 57.8295 55.8761 57L57.4388 38.2508M41.815 38.2508V33.5627C41.815 33.1487 41.98 32.7516 42.2732 32.4583C42.5665 32.165 42.9637 32 43.3777 32H49.6269C50.0409 32 50.438 32.165 50.7313 32.4583C51.0246 32.7516 51.1896 33.1487 51.1896 33.5627V38.2508" stroke="#FC2F3D" stroke-width="3.12538" stroke-linecap="round" stroke-linejoin="round"/>
</g>
</g>
<defs>
<clipPath id="clip0_1026_15494">
<rect width="92" height="92" fill="white"/>
</clipPath>
</defs>
</svg>
