<svg width="40" height="40" viewBox="0 0 40 40" fill="none" xmlns="http://www.w3.org/2000/svg">
<g clip-path="url(#clip0_1086_12353)">
<path d="M20 40C31.0457 40 40 31.0457 40 20C40 8.9543 31.0457 0 20 0C8.9543 0 0 8.9543 0 20C0 31.0457 8.9543 40 20 40Z" fill="#E5F5E9"/>
<path d="M15.1834 22.3928C15.0815 22.3928 14.9789 22.3928 14.877 22.3928C13.9269 22.3928 12.9762 22.4009 12.0261 22.3899C11.2197 22.3806 10.6433 21.8326 10.6288 21.0267C10.6074 19.8524 10.6079 18.6776 10.6276 17.5033C10.6415 16.6911 11.1942 16.1268 12.0076 16.1164C13.6731 16.0955 15.3387 16.1042 17.0042 16.1141C17.5019 16.117 17.9074 16.3388 18.2156 16.8064C18.8662 15.7178 19.7792 15.0585 21.0363 14.8355C20.8648 14.6258 20.7148 14.4549 20.5781 14.2736C20.1604 13.7186 19.8701 13.1051 19.7757 12.4128C19.6477 11.4731 20.0074 10.7339 20.8631 10.3788C21.9441 9.93038 23.0668 9.80988 24.1392 10.4066C25.1733 10.9818 25.6361 11.9186 25.5394 13.0807C25.445 14.2145 24.799 14.9821 23.7487 15.4096C23.6427 15.4525 23.5326 15.4855 23.4451 15.5162C23.6931 15.9304 23.9132 16.3412 24.1809 16.7183C24.2602 16.8301 24.4705 16.8927 24.6246 16.9002C25.0933 16.9234 25.5637 16.9072 26.0336 16.9083C26.8104 16.9101 27.1204 17.1945 27.1881 17.9586C27.1963 18.0478 27.2223 18.1353 27.253 18.2877C27.384 18.1214 27.4668 18.0027 27.5635 17.8966C27.9621 17.4598 28.4615 17.2947 29.0385 17.3915C29.3873 17.45 29.5993 17.6771 29.6097 18.027C29.6282 18.6457 29.6277 19.2656 29.608 19.8837C29.5964 20.2545 29.3311 20.492 28.9423 20.5395C28.8404 20.5517 28.7372 20.5528 28.5953 20.5609C28.6544 20.6832 28.6932 20.7793 28.7442 20.8686C29.1978 21.6663 29.6665 22.4565 30.1021 23.2641C30.2655 23.567 30.4717 23.7455 30.8031 23.8469C31.6704 24.1122 32.2734 24.6985 32.6315 25.5205C32.7068 25.6937 32.6575 25.9208 32.6674 26.123C32.6714 26.2145 32.6639 26.3107 32.6871 26.3976C33.2224 28.4206 31.6918 30.2275 29.6207 29.9709C28.6173 29.8463 27.9129 29.2537 27.4604 28.3517C27.3979 28.2265 27.2496 28.1472 27.1656 28.0296C27.0584 27.8807 26.9414 27.7237 26.8915 27.5522C26.8261 27.3268 26.7189 27.255 26.486 27.2562C24.6391 27.2649 22.7917 27.266 20.9448 27.255C20.6829 27.2533 20.603 27.339 20.5723 27.591C20.4066 28.9692 19.201 30.0201 17.8217 30.0097C16.4267 29.9987 15.2309 28.9553 15.0728 27.5864C15.0427 27.3257 14.954 27.2307 14.6974 27.2567C14.5508 27.2718 14.3973 27.2602 14.2507 27.2365C13.6679 27.1415 13.1807 26.6027 13.3331 26.0518C13.65 24.9064 13.9489 23.7345 14.8005 22.8255C14.866 22.756 14.9436 22.6981 15.016 22.6343C15.0786 22.5793 15.1417 22.5243 15.2043 22.4692C15.1973 22.4432 15.191 22.4165 15.184 22.3904L15.1834 22.3928ZM29.5721 23.6464C29.5031 23.5172 29.4562 23.4234 29.4041 23.3324C28.6996 22.1002 27.9783 20.8773 27.2971 19.6323C27.0526 19.1856 26.8151 18.8404 26.2462 18.7685C25.7705 18.7083 25.6871 18.7349 25.7908 19.2227C26.1118 20.7365 26.435 22.2502 26.7513 23.7646C26.9593 24.7605 26.3991 25.4464 25.3783 25.4516C24.2151 25.458 23.0512 25.4608 21.8879 25.4632C21.7495 25.4632 21.6098 25.4603 21.4726 25.4429C20.8237 25.3629 20.4135 24.9059 20.4049 24.2559C20.4014 23.9998 20.4118 23.7432 20.3996 23.4871C20.3701 22.8527 19.9495 22.4235 19.3192 22.4107C18.6258 22.3968 17.9306 22.3852 17.2383 22.4171C16.0576 22.471 15.1944 23.0462 14.6939 24.1174C14.4506 24.6382 14.2646 25.1862 14.0619 25.7256C13.8319 26.3368 14.0288 26.6137 14.6869 26.6137C18.5835 26.6143 22.48 26.6137 26.3765 26.6137C26.4895 26.6137 26.6024 26.6137 26.7241 26.6137C26.9483 24.9186 27.8828 23.943 29.5715 23.6447L29.5721 23.6464ZM14.7675 21.7613C14.7675 21.7578 14.7675 21.7543 14.7675 21.7509C15.6538 21.7509 16.5402 21.7439 17.426 21.7555C17.66 21.7584 17.7406 21.6941 17.7394 21.4496C17.7324 20.1896 17.7458 18.9296 17.7452 17.6701C17.7452 17.03 17.4671 16.7571 16.8206 16.756C15.2831 16.7531 13.7456 16.7531 12.2075 16.7548C11.5389 16.7554 11.2701 17.0213 11.2678 17.6852C11.2643 18.7314 11.2649 19.7783 11.2678 20.8245C11.2695 21.489 11.5395 21.7584 12.2046 21.7607C13.0591 21.7636 13.913 21.7613 14.7675 21.7613ZM25.1808 17.5577C25.0139 17.5577 24.8454 17.5531 24.6768 17.5589C24.0975 17.5786 23.7157 17.3191 23.4753 16.7884C22.9799 15.6935 22.0003 15.2196 20.8463 15.5394C18.9623 16.0613 18.1594 17.6191 18.4566 19.7528H21.2802C21.5044 19.4313 21.7402 19.0935 21.9296 18.8212C21.7773 18.3775 21.618 17.9673 21.4986 17.5462C21.4361 17.3243 21.4917 17.0978 21.7836 17.0804C22.0525 17.0642 22.1063 17.2675 22.1307 17.4859C22.21 18.1886 22.677 18.6573 23.3803 18.7199C23.6664 18.7453 23.9561 18.7332 24.244 18.7338C25.2868 18.7355 25.2978 18.7228 25.2213 17.6759C25.2196 17.6556 25.208 17.6365 25.1802 17.5577H25.1808ZM23.2708 23.4043C23.2708 23.4043 23.276 23.4043 23.2783 23.4043C23.2783 23.7669 23.2951 24.1307 23.2725 24.4922C23.2557 24.7581 23.3629 24.8172 23.6045 24.812C24.1913 24.7987 24.7782 24.812 25.365 24.8068C25.9889 24.8016 26.2444 24.4882 26.1152 23.8805C25.8186 22.482 25.5087 21.0858 25.2219 19.685C25.1698 19.4313 25.0701 19.3728 24.8205 19.3728C24.2035 19.3733 23.5639 19.4214 22.977 19.2754C22.5501 19.1694 22.3688 19.3056 22.1643 19.5807C22.1069 19.6572 22.0565 19.7395 22.0061 19.8206C21.892 20.0031 21.9169 20.1288 22.1069 20.269C22.8345 20.806 23.243 21.5273 23.269 22.4432C23.2783 22.7629 23.2708 23.0833 23.2708 23.4031V23.4043ZM22.7245 14.967C22.7471 14.8674 22.7604 14.8448 22.7552 14.8268C22.6474 14.4369 22.5304 14.0488 22.4319 13.6566C22.3914 13.4944 22.3514 13.3171 22.3751 13.156C22.4516 12.6323 22.8977 12.3357 23.4295 12.447C23.9051 12.546 24.3761 12.6671 24.8517 12.7789C24.9473 12.133 24.5169 11.3538 23.8657 10.9853C22.9938 10.4917 22.0889 10.6117 21.2072 10.9262C20.5763 11.1516 20.318 11.6249 20.4211 12.2946C20.5827 13.3414 21.1423 14.1502 22.0287 14.7185C22.2286 14.8465 22.4864 14.8853 22.7245 14.967ZM22.6213 24.7819C22.6213 23.9656 22.6439 23.1783 22.6156 22.3928C22.5808 21.4427 21.9325 20.6119 20.9952 20.4683C20.1615 20.3402 19.3024 20.379 18.4108 20.3425C18.4108 20.8019 18.4021 21.1936 18.4207 21.584C18.4236 21.6425 18.5516 21.7358 18.6275 21.7422C18.9345 21.7677 19.2456 21.7497 19.5527 21.7775C20.3695 21.8517 21.0305 22.5683 21.0485 23.3834C21.0549 23.6603 21.0502 23.9378 21.0578 24.2147C21.0659 24.5195 21.213 24.7448 21.5201 24.7738C21.8763 24.808 22.2384 24.7819 22.6213 24.7819ZM31.7885 25.396C31.2868 24.4494 29.9724 24.0774 28.8786 24.52C27.8943 24.9186 27.2362 26.1207 27.4604 26.9335C28.9487 25.6677 29.7603 25.3404 31.788 25.396H31.7885ZM31.1397 26.0825C31.6721 26.7962 31.77 27.5331 31.1866 28.2445C30.777 28.7439 30.2064 28.8957 29.5958 28.7172C28.7714 28.4768 28.4476 27.8442 28.4372 27.0134C27.8856 27.3465 27.8219 27.5215 28.0374 28.0527C28.4557 29.0822 29.6479 29.6105 30.7162 29.2392C31.8007 28.8626 32.4067 27.6965 32.0782 26.6183C31.9114 26.0703 31.7694 25.9857 31.1397 26.0825ZM15.7164 27.2956C15.6527 28.3801 16.6862 29.3887 17.8448 29.3632C19.201 29.333 20.0179 28.1935 19.9246 27.3089C19.4814 27.2023 19.4165 27.2266 19.3511 27.5267C19.1918 28.2625 18.6316 28.741 17.8889 28.7763C17.1676 28.8105 16.5506 28.3644 16.3282 27.6466C16.2417 27.3674 16.0375 27.2504 15.7158 27.2956H15.7164ZM30.9271 27.2214C30.9277 26.7076 30.5274 26.3061 30.0147 26.3067C29.502 26.3072 29.1011 26.7064 29.0987 27.2179C29.0964 27.7272 29.5008 28.1321 30.0118 28.1321C30.5262 28.1321 30.9259 27.7341 30.9271 27.2214ZM24.795 13.4347C24.2684 13.309 23.7765 13.1827 23.28 13.0778C23.101 13.0396 22.9695 13.1491 23.0159 13.3339C23.1387 13.8257 23.2887 14.3106 23.4359 14.8268C24.1114 14.5534 24.554 14.1287 24.795 13.4353V13.4347ZM28.9516 18.0195C28.52 17.9731 28.1823 18.1 27.9557 18.4377C27.7339 18.7691 27.7408 19.1265 27.965 19.4614C28.1933 19.8026 28.5194 19.9364 28.9516 19.8872V18.0189V18.0195ZM16.9498 27.2828C16.9446 27.7787 17.3611 28.1553 17.8663 28.1321C18.3668 28.1095 18.73 27.737 18.6825 27.2828H16.9498ZM26.5092 18.1382C26.592 17.7918 26.5173 17.6041 26.2578 17.5716C26.132 17.556 25.9472 17.4656 25.9067 17.7113C25.8574 18.0084 25.9548 18.0797 26.5092 18.1382Z" fill="#1D1D1B"/>
<path d="M8.10347 23.9882C6.91991 23.9882 5.73636 23.9882 4.5528 23.9876C4.44679 23.9876 4.31991 24.0114 4.23939 23.9633C4.13453 23.9001 4.00476 23.7791 4.00013 23.6777C3.99549 23.5757 4.11715 23.4506 4.211 23.3683C4.26372 23.322 4.37379 23.3318 4.45779 23.3318C6.88863 23.3301 9.31946 23.3307 11.7503 23.3307C11.9791 23.3307 12.2091 23.3672 12.2184 23.6458C12.2282 23.9471 11.9942 23.9899 11.7491 23.9893C10.5337 23.9882 9.31831 23.9888 8.10289 23.9888L8.10347 23.9882Z" fill="#1D1D1B"/>
<path d="M9.15374 26.5149C8.3537 26.5149 7.55423 26.5149 6.75419 26.5138C6.66961 26.5138 6.56012 26.5323 6.50566 26.4883C6.40138 26.4049 6.25713 26.2786 6.26234 26.1766C6.26756 26.0706 6.41818 25.9565 6.52825 25.8783C6.58676 25.8366 6.69336 25.8603 6.77852 25.8597C8.3676 25.8592 9.95668 25.8592 11.5458 25.8597C11.6414 25.8597 11.7624 25.8354 11.8267 25.8835C11.9339 25.9628 12.0619 26.0862 12.0718 26.2004C12.0799 26.2902 11.9351 26.4112 11.8343 26.486C11.7763 26.5288 11.6697 26.5132 11.5852 26.5132C10.7747 26.5149 9.96421 26.5144 9.15374 26.5138V26.5149Z" fill="#1D1D1B"/>
<path d="M6.50592 20.8074C7.15649 20.8074 7.80765 20.8057 8.45823 20.8092C8.56367 20.8092 8.69054 20.7982 8.76875 20.8503C8.86144 20.9123 8.9663 21.0374 8.9663 21.1348C8.9663 21.2332 8.86376 21.3642 8.76991 21.4204C8.68011 21.4742 8.54339 21.4592 8.42753 21.4598C7.12579 21.4627 5.82405 21.4621 4.5229 21.4621C4.44816 21.4621 4.35084 21.4864 4.30391 21.4488C4.18515 21.3537 4.02584 21.2402 4.00556 21.1145C3.99224 21.0322 4.1782 20.8596 4.30102 20.8266C4.49045 20.7756 4.70306 20.808 4.90525 20.808C5.4388 20.8074 5.97236 20.808 6.50534 20.808L6.50592 20.8074Z" fill="#1D1D1B"/>
<path d="M7.59485 18.9331C7.27506 18.9331 6.95528 18.9331 6.63549 18.9331C6.41419 18.9331 6.24619 18.8433 6.24561 18.6076C6.24503 18.3689 6.41882 18.2849 6.63723 18.2843C7.28723 18.2831 7.93723 18.282 8.58781 18.2843C8.80389 18.2849 8.97885 18.3677 8.97827 18.6093C8.97769 18.8509 8.80216 18.9308 8.58607 18.9331C8.25586 18.936 7.92506 18.9337 7.59485 18.9331Z" fill="#1D1D1B"/>
<path d="M29.5716 23.6465C27.8829 23.9448 26.9484 24.9204 26.7242 26.6155C26.6032 26.6155 26.4902 26.6155 26.3766 26.6155C22.4801 26.6155 18.5836 26.6155 14.6871 26.6155C14.029 26.6155 13.832 26.3386 14.062 25.7274C14.2647 25.188 14.4507 24.64 14.694 24.1192C15.1946 23.0486 16.0578 22.4728 17.2384 22.4189C17.9307 22.387 18.6259 22.3986 19.3193 22.4125C19.9502 22.4253 20.3708 22.8545 20.3998 23.4889C20.4114 23.7444 20.4015 24.001 20.405 24.2576C20.4137 24.9076 20.8233 25.3653 21.4727 25.4447C21.61 25.4615 21.7496 25.465 21.888 25.465C23.0513 25.4626 24.2152 25.4597 25.3785 25.4534C26.3992 25.4476 26.9594 24.7622 26.7515 23.7664C26.4352 22.2515 26.1119 20.7383 25.7909 19.2245C25.6872 18.7367 25.7712 18.7106 26.2463 18.7703C26.8152 18.8421 27.0527 19.1868 27.2972 19.6341C27.9779 20.879 28.6991 22.102 29.4042 23.3342C29.4563 23.4252 29.5032 23.519 29.5722 23.6482L29.5716 23.6465Z" fill="white"/>
<path d="M14.7678 21.7616C13.9133 21.7616 13.0593 21.7639 12.2048 21.761C11.5398 21.7587 11.2698 21.4893 11.2681 20.8248C11.2658 19.7786 11.2652 18.7317 11.2681 17.6855C11.2704 17.0216 11.5392 16.7557 12.2077 16.7551C13.7453 16.7534 15.2828 16.7534 16.8209 16.7563C17.4674 16.7574 17.7449 17.0303 17.7455 17.6704C17.7455 18.9304 17.7327 20.1905 17.7397 21.4499C17.7408 21.6944 17.6609 21.7587 17.4263 21.7558C16.5405 21.7442 15.6541 21.7512 14.7678 21.7512C14.7678 21.7546 14.7678 21.7581 14.7678 21.7616Z" fill="white"/>
<path d="M25.1808 17.5579C25.2087 17.6367 25.2202 17.6564 25.222 17.6761C25.2984 18.7229 25.2874 18.7357 24.2447 18.7339C23.9567 18.7339 23.6671 18.7455 23.3809 18.72C22.6776 18.6575 22.2107 18.1888 22.1313 17.4861C22.107 17.2677 22.0531 17.0643 21.7843 17.0806C21.4923 17.0979 21.4367 17.325 21.4993 17.5463C21.6186 17.9675 21.7773 18.3771 21.9303 18.8214C21.7408 19.0931 21.505 19.4309 21.2808 19.753H18.4572C18.16 17.6193 18.963 16.061 20.8469 15.5396C22.0015 15.2198 22.9806 15.6931 23.4759 16.7886C23.7163 17.3198 24.0981 17.5794 24.6774 17.5591C24.846 17.5533 25.0146 17.5579 25.1814 17.5579H25.1808Z" fill="white"/>
<path d="M22.7243 14.9678C22.4862 14.8855 22.2284 14.8473 22.0286 14.7192C21.1416 14.1509 20.582 13.3422 20.421 12.2953C20.3178 11.6256 20.5762 11.1529 21.2071 10.927C22.0894 10.6118 22.9937 10.4925 23.8656 10.9861C24.5168 11.3545 24.9472 12.1337 24.8516 12.7797C24.376 12.6678 23.905 12.5468 23.4294 12.4477C22.8976 12.3365 22.4515 12.6331 22.375 13.1568C22.3513 13.3178 22.3912 13.4951 22.4318 13.6573C22.5308 14.0495 22.6473 14.4377 22.755 14.8276C22.7597 14.8455 22.7469 14.8681 22.7243 14.9678Z" fill="white"/>
<path d="M22.6217 24.7816C22.2388 24.7816 21.8767 24.8077 21.5204 24.7735C21.2134 24.744 21.0662 24.5192 21.0581 24.2145C21.0506 23.9376 21.0552 23.6601 21.0489 23.3831C21.0303 22.5675 20.3699 21.8514 19.5531 21.7773C19.246 21.7495 18.9349 21.768 18.6279 21.7419C18.552 21.7356 18.424 21.6417 18.4211 21.5838C18.4025 21.1933 18.4112 20.8017 18.4112 20.3423C19.3022 20.3788 20.1613 20.34 20.9956 20.468C21.9329 20.6117 22.5812 21.4424 22.6159 22.3925C22.6449 23.1781 22.6217 23.9654 22.6217 24.7816Z" fill="white"/>
<path d="M31.7885 25.3971C29.7608 25.3415 28.9492 25.6694 27.4609 26.9347C27.2367 26.1219 27.8948 24.9198 28.8791 24.5212C29.9723 24.0786 31.2868 24.4505 31.789 25.3971H31.7885Z" fill="white"/>
<path d="M31.1394 26.0819C31.7691 25.9852 31.9105 26.0698 32.0779 26.6178C32.407 27.6965 31.801 28.8627 30.7159 29.2386C29.6471 29.6094 28.4548 29.0811 28.0372 28.0522C27.8216 27.521 27.8854 27.346 28.4369 27.0129C28.4479 27.8431 28.7712 28.4757 29.5955 28.7167C30.2061 28.8951 30.7773 28.7427 31.1863 28.2439C31.7697 27.5325 31.6718 26.7962 31.1394 26.0819Z" fill="white"/>
<path d="M15.7166 27.2955C16.0379 27.2504 16.242 27.3674 16.3289 27.6466C16.5514 28.3644 17.1684 28.8105 17.8896 28.7763C18.6317 28.741 19.1919 28.2619 19.3518 27.5267C19.4167 27.2266 19.4822 27.2017 19.9254 27.3089C20.0186 28.1935 19.2012 29.333 17.8456 29.3631C16.6875 29.3886 15.6534 28.38 15.7172 27.2955H15.7166Z" fill="white"/>
<path d="M30.927 27.2214C30.9264 27.7341 30.5261 28.1327 30.0117 28.1321C29.5007 28.1321 29.0963 27.7271 29.0986 27.2179C29.101 26.7064 29.5019 26.3072 30.0146 26.3066C30.5267 26.3061 30.9276 26.7081 30.927 27.2214Z" fill="white"/>
<path d="M24.7943 13.4349C24.5533 14.1284 24.1107 14.553 23.4352 14.8265C23.2881 14.3103 23.138 13.8254 23.0152 13.3335C22.9689 13.1487 23.1004 13.0398 23.2794 13.0775C23.7759 13.1829 24.2671 13.3086 24.7943 13.4343V13.4349Z" fill="white"/>
<path d="M28.951 18.0203V19.8886C28.5189 19.9373 28.1927 19.804 27.9645 19.4628C27.7403 19.128 27.7333 18.7705 27.9552 18.4392C28.1817 18.1008 28.5194 17.974 28.951 18.0209V18.0203Z" fill="white"/>
<path d="M16.9493 27.2837H18.682C18.7289 27.7379 18.3663 28.1104 17.8658 28.133C17.3606 28.1561 16.9441 27.7796 16.9493 27.2837Z" fill="white"/>
<path d="M26.5088 18.1394C25.9538 18.0809 25.857 18.0096 25.9063 17.7124C25.9468 17.4668 26.1316 17.5571 26.2573 17.5728C26.5169 17.6058 26.5916 17.7929 26.5088 18.1394Z" fill="white"/>
</g>
<defs>
<clipPath id="clip0_1086_12353">
<rect width="40" height="40" fill="white"/>
</clipPath>
</defs>
</svg>
