<svg width="40" height="40" viewBox="0 0 40 40" fill="none" xmlns="http://www.w3.org/2000/svg">
<g clip-path="url(#clip0_1086_12375)">
<path d="M20 40C31.0457 40 40 31.0457 40 20C40 8.9543 31.0457 0 20 0C8.9543 0 0 8.9543 0 20C0 31.0457 8.9543 40 20 40Z" fill="#E5F5E9"/>
<g clip-path="url(#clip1_1086_12375)">
<path d="M33.9911 19.1077C33.9911 20.8978 33.9816 22.688 33.9977 24.4781C34.0006 24.8193 33.8656 24.9448 33.5566 25.0266C27.9325 26.5115 22.3102 28.0041 16.6899 29.5023C16.2763 29.6126 15.9065 29.5984 15.4949 29.4434C12.5041 28.3216 9.50569 27.2207 6.50348 26.1275C6.17455 26.0077 6.03765 25.8613 6.0386 25.4896C6.04145 21.974 6.02719 18.4565 5.99963 14.94C5.99582 14.4922 6.08519 14.2745 6.58809 14.1842C10.6665 13.4551 14.7382 12.6936 18.8118 11.9388C20.4127 11.6421 22.0108 11.3313 23.6145 11.047C23.9188 10.9928 24.2543 10.9748 24.5509 11.0432C27.5417 11.7277 30.5259 12.4388 33.5157 13.1271C33.876 13.2098 34.0034 13.3657 33.9996 13.7374C33.9825 15.5275 33.992 17.3176 33.9911 19.1077ZM33.5053 19.411C33.0984 19.507 32.778 19.5802 32.4595 19.6572C30.2626 20.1915 28.0665 20.7277 25.8695 21.2591C25.4351 21.3646 25.1166 21.1887 25.0177 20.8113C24.8732 20.258 25.1907 19.701 25.7469 19.5603C26.7584 19.3036 27.7718 19.0564 28.7852 18.8083C30.2435 18.4508 31.7038 18.101 33.1592 17.7312C33.2885 17.6979 33.3864 17.5391 33.4986 17.4393C33.3579 17.4298 33.2087 17.3851 33.0765 17.4155C32.3369 17.5857 31.6011 17.7721 30.8653 17.9546C29.9441 18.1827 29.0257 18.4195 28.1026 18.6381C27.7737 18.7161 27.3592 18.7817 27.2328 18.3966C27.132 18.0905 27.1558 17.6722 27.2898 17.3813C27.3915 17.1598 27.7376 16.9887 28.0066 16.9184C29.7045 16.4763 31.4119 16.0742 33.1127 15.6426C33.2686 15.6026 33.5053 15.4562 33.5157 15.3431C33.5595 14.8316 33.5347 14.3154 33.5347 13.7317C32.9263 13.8715 32.4054 13.9855 31.8863 14.1101C26.8744 15.3165 21.8644 16.5305 16.8496 17.7245C16.4313 17.8243 16.3049 17.9983 16.3068 18.4233C16.3239 21.8304 16.3153 25.2367 16.3172 28.6439C16.3172 28.7779 16.3438 28.911 16.3628 29.0945C16.6252 29.0308 16.8382 28.9823 17.0483 28.9272C18.3013 28.5954 19.5542 28.2598 20.8072 27.928C24.8865 26.8462 28.9649 25.7596 33.048 24.6891C33.4207 24.5912 33.5576 24.4267 33.5509 24.0379C33.529 22.6756 33.5405 21.3123 33.5376 19.95C33.5376 19.796 33.5195 19.643 33.5053 19.411ZM11.9822 16.598C11.9432 16.7187 11.9261 16.7472 11.9261 16.7767C11.9251 20.2913 11.928 23.8069 11.9185 27.3215C11.9185 27.6162 12.0801 27.6913 12.3006 27.7712C13.3701 28.16 14.4368 28.5583 15.5053 28.949C15.6004 28.9842 15.7059 28.989 15.8695 29.0203C15.8695 28.7855 15.8695 28.5992 15.8695 28.4129C15.8695 25.4202 15.8695 22.4275 15.8656 19.4348C15.8656 18.93 16.0263 18.2892 15.781 17.9574C15.5234 17.6085 14.8713 17.5401 14.3826 17.3747C13.5936 17.1075 12.7978 16.8613 11.9812 16.598H11.9822ZM12.8558 16.2405C12.8511 16.2881 12.8473 16.3356 12.8425 16.3831C13.8151 16.7016 14.7838 17.0305 15.762 17.3309C15.974 17.3956 16.2298 17.4079 16.4456 17.3566C21.3329 16.192 26.2165 15.0161 31.101 13.8391C31.5526 13.7308 31.9994 13.6053 32.4481 13.4874C32.4472 13.4437 32.4453 13.3999 32.4443 13.3572C31.5764 13.1556 30.7103 12.9436 29.8386 12.7582C29.6009 12.7078 29.3347 12.686 29.0999 12.7364C24.4321 13.727 19.7672 14.7299 15.1023 15.7329C14.3522 15.8945 13.605 16.0713 12.8568 16.2415L12.8558 16.2405ZM9.05317 26.5686C9.08644 26.4431 9.11496 26.3851 9.11496 26.3262C9.11876 22.8743 9.12162 19.4224 9.11686 15.9705C9.11686 15.8593 9.06268 15.6758 8.98947 15.6492C8.18046 15.3602 7.36383 15.0959 6.532 14.8193C6.49873 14.9704 6.47306 15.0313 6.47401 15.0921C6.48161 18.5117 6.49112 21.9322 6.50823 25.3517C6.50823 25.4591 6.57098 25.6322 6.64893 25.6626C7.43703 25.9744 8.23559 26.2634 9.05317 26.5676V26.5686ZM25.4142 11.8408L25.4189 11.6697C24.8998 11.5994 24.3561 11.3931 23.8646 11.4805C19.0732 12.3304 14.2904 13.2279 9.50664 14.1148C8.82501 14.2413 8.14433 14.3772 7.46365 14.5084C7.46365 14.5493 7.46365 14.5911 7.4627 14.632C7.90571 14.7803 8.34112 14.9638 8.79459 15.0665C9.12067 15.1406 9.48477 15.1767 9.808 15.1111C14.2799 14.1937 18.749 13.2564 23.2172 12.3219C23.9511 12.1688 24.6821 12.0025 25.4151 11.8418L25.4142 11.8408ZM10.4345 15.4629C10.4335 15.5123 10.4316 15.5617 10.4307 15.6121C10.9992 15.7262 11.4945 16.0723 12.1447 15.9297C17.1139 14.8411 22.0878 13.7764 27.0598 12.7021C27.3991 12.6289 27.7357 12.5396 28.0732 12.4588C27.4457 12.2049 26.8658 11.9939 26.188 12.1403C22.3273 12.975 18.4591 13.7716 14.5937 14.5826C13.2066 14.8735 11.8206 15.1701 10.4345 15.4638V15.4629ZM9.57128 15.8137C9.57128 17.734 9.56843 19.5498 9.57984 21.3646C9.57984 21.4559 9.68916 21.589 9.78138 21.6308C10.1693 21.8105 10.5799 21.9417 10.9631 22.1309C11.2901 22.2925 11.4365 22.2373 11.4365 21.8628C11.4365 20.1383 11.4403 18.4128 11.4327 16.6883C11.4327 16.5837 11.3661 16.4135 11.2891 16.385C10.7482 16.1863 10.1968 16.0171 9.57128 15.8127V15.8137ZM11.3291 27.4185C11.3766 27.3633 11.4137 27.3396 11.4137 27.3158C11.4241 25.8784 11.4346 24.441 11.4317 23.0036C11.4317 22.918 11.3395 22.7811 11.2616 22.7554C10.7206 22.5758 10.1721 22.4189 9.56843 22.2373C9.56843 23.2317 9.55797 24.1624 9.57223 25.0931C9.58079 25.654 9.42963 26.3689 9.71293 26.733C10.02 27.1276 10.7473 27.1951 11.3291 27.4194V27.4185ZM33.3941 18.1666C33.2248 18.2037 33.0889 18.2312 32.9539 18.2645C32.0184 18.4908 31.082 18.718 30.1475 18.9461C28.7519 19.2874 27.3573 19.6325 25.9608 19.9719C25.6204 20.0546 25.3961 20.2647 25.4721 20.6088C25.5596 21.0091 25.8819 20.7885 26.0939 20.7372C28.3641 20.1915 30.6314 19.6325 32.8997 19.0773C33.3142 18.9759 33.479 18.6723 33.3941 18.1666ZM33.3941 16.0894C33.2714 16.1027 33.1773 16.1036 33.0879 16.1255C32.0317 16.3869 30.9765 16.6512 29.9213 16.9145C29.2634 17.079 28.5932 17.2083 27.9543 17.4298C27.7747 17.4916 27.69 17.8253 27.5617 18.0344C27.748 18.0753 27.9496 18.1846 28.1169 18.1457C29.7131 17.773 31.3045 17.3737 32.8969 16.9839C33.5129 16.8328 33.5252 16.8128 33.395 16.0903L33.3941 16.0894Z" fill="black"/>
<path d="M33.5057 19.41C33.5199 19.642 33.537 19.795 33.538 19.949C33.5418 21.3113 33.5294 22.6746 33.5513 24.0369C33.558 24.4257 33.4211 24.5902 33.0484 24.6881C28.9653 25.7586 24.8869 26.8442 20.8076 27.927C19.5546 28.2598 18.3017 28.5944 17.0487 28.9262C16.8386 28.9823 16.6256 29.0298 16.3632 29.0935C16.3442 28.91 16.3176 28.7769 16.3176 28.6429C16.3157 25.2357 16.3243 21.8294 16.3072 18.4223C16.3052 17.9973 16.4307 17.8233 16.85 17.7235C21.8647 16.5295 26.8748 15.3164 31.8867 14.1091C32.4048 13.9845 32.9258 13.8705 33.5351 13.7307C33.5351 14.3135 33.5599 14.8306 33.5161 15.3421C33.5066 15.4552 33.269 15.6016 33.113 15.6416C31.4133 16.0732 29.7049 16.4753 28.007 16.9173C27.738 16.9877 27.3919 17.1598 27.2902 17.3803C27.1552 17.6712 27.1324 18.0895 27.2332 18.3956C27.3596 18.7807 27.7741 18.7151 28.103 18.6371C29.0261 18.4185 29.9454 18.1817 30.8657 17.9536C31.6024 17.771 32.3373 17.5838 33.0769 17.4145C33.2091 17.3841 33.3574 17.4288 33.499 17.4383C33.3868 17.5391 33.2889 17.6978 33.1596 17.7302C31.7042 18.1 30.2439 18.4498 28.7856 18.8073C27.7722 19.0554 26.7588 19.3026 25.7473 19.5593C25.1911 19.7 24.8736 20.258 25.0181 20.8103C25.117 21.1877 25.4355 21.3636 25.8699 21.2581C28.0669 20.7267 30.2629 20.1905 32.4599 19.6562C32.7794 19.5783 33.0997 19.5051 33.5057 19.41ZM17.2074 25.5608C17.2074 26.1626 17.2236 26.7653 17.2017 27.3671C17.1875 27.7569 17.3139 27.8852 17.7027 27.7835C19.8142 27.2321 21.9284 26.6893 24.0418 26.1455C24.2794 26.0846 24.4144 25.9782 24.4106 25.6901C24.3945 24.5179 24.3973 23.3448 24.4078 22.1726C24.4106 21.8047 24.288 21.6992 23.9191 21.7886C21.8134 22.2953 19.7039 22.7877 17.5934 23.2754C17.2892 23.3458 17.1875 23.495 17.1998 23.804C17.2226 24.3896 17.2065 24.9762 17.2074 25.5627V25.5608ZM18.5707 20.3493C18.5707 19.9718 18.5897 19.5925 18.5602 19.217C18.5507 19.0953 18.4157 18.9831 18.3387 18.8662C18.2589 18.9784 18.1134 19.0896 18.1106 19.2047C18.0897 19.9595 18.0887 20.7143 18.1106 21.4691C18.1134 21.5813 18.2674 21.6887 18.352 21.7981C18.4252 21.6773 18.5517 21.5604 18.5621 21.434C18.5907 21.0746 18.5726 20.7105 18.5716 20.3493H18.5707ZM21.6033 19.5764C21.5957 19.5764 21.5872 19.5764 21.5796 19.5764C21.5796 19.1961 21.5976 18.8149 21.5681 18.4365C21.5596 18.3215 21.4179 18.2169 21.3371 18.1066C21.2677 18.2141 21.1413 18.3196 21.1394 18.4289C21.1213 19.1885 21.1185 19.95 21.1403 20.7096C21.1432 20.8208 21.3029 20.9273 21.3904 21.0356C21.4617 20.9292 21.5862 20.8255 21.5938 20.7153C21.6195 20.3369 21.6033 19.9557 21.6033 19.5754V19.5764ZM20.6888 19.8397C20.6888 19.4433 20.7021 19.0468 20.6802 18.6523C20.6736 18.5401 20.5652 18.4327 20.5034 18.3234C20.4188 18.4318 20.2638 18.5373 20.261 18.6476C20.2382 19.4233 20.2382 20.2 20.2553 20.9757C20.2572 21.0775 20.3941 21.1754 20.4692 21.2752C20.5424 21.1773 20.6726 21.0822 20.6802 20.9796C20.7059 20.6012 20.6907 20.22 20.6897 19.8397H20.6888ZM19.4643 20.1401H19.4605C19.4605 19.7304 19.4757 19.3206 19.4501 18.9128C19.4434 18.8063 19.3122 18.7084 19.2381 18.6057C19.1649 18.7094 19.0308 18.8111 19.028 18.9166C19.0108 19.7038 19.0108 20.4909 19.0308 21.2771C19.0327 21.3693 19.1848 21.4577 19.2666 21.548C19.3322 21.4568 19.4482 21.3684 19.4539 21.2733C19.4757 20.8968 19.4624 20.5185 19.4624 20.1401H19.4643ZM22.3344 19.2864C22.3344 19.2864 22.3306 19.2864 22.3287 19.2864C22.3287 19.6971 22.3135 20.1087 22.3401 20.5175C22.3467 20.6145 22.495 20.702 22.5778 20.7942C22.6433 20.7029 22.7631 20.6116 22.765 20.5194C22.7812 19.7304 22.7831 18.9404 22.766 18.1513C22.7641 18.0467 22.631 17.945 22.5578 17.8423C22.4836 17.945 22.3524 18.0429 22.3448 18.1504C22.3182 18.5278 22.3344 18.908 22.3344 19.2864ZM17.2873 20.4434H17.2892C17.2892 20.8531 17.2749 21.2638 17.2987 21.6716C17.3044 21.7772 17.428 21.877 17.4964 21.9787C17.5763 21.8827 17.7217 21.7886 17.7236 21.6906C17.7417 20.9035 17.7417 20.1144 17.7217 19.3273C17.7189 19.2303 17.5706 19.1372 17.4907 19.0421C17.4223 19.1467 17.3034 19.2474 17.2958 19.3558C17.2711 19.7161 17.2863 20.0802 17.2863 20.4424L17.2873 20.4434ZM24.0123 19.0117C24.0123 18.6162 24.0275 18.2207 24.0018 17.8271C23.9952 17.7226 23.8631 17.6256 23.7889 17.5248C23.7166 17.6256 23.5836 17.7245 23.5817 17.8271C23.5645 18.601 23.5655 19.3758 23.5817 20.1506C23.5836 20.2589 23.7005 20.3645 23.7642 20.4719C23.8469 20.3645 23.9923 20.2627 24.0009 20.1496C24.0313 19.7732 24.0123 19.3919 24.0114 19.0126L24.0123 19.0117Z" fill="white"/>
<path d="M11.9822 16.5979C12.7988 16.8603 13.5945 17.1065 14.3836 17.3746C14.8722 17.54 15.5244 17.6085 15.782 17.9574C16.0273 18.2901 15.8657 18.9299 15.8666 19.4347C15.8704 22.4274 15.8695 25.4201 15.8704 28.4128C15.8704 28.5991 15.8704 28.7855 15.8704 29.0203C15.7069 28.9889 15.6014 28.9841 15.5063 28.949C14.4378 28.5582 13.3711 28.1599 12.3016 27.7711C12.0811 27.6912 11.9185 27.6161 11.9194 27.3214C11.9289 23.8068 11.9251 20.2912 11.927 16.7766C11.927 16.7472 11.9442 16.7186 11.9831 16.5979H11.9822Z" fill="white"/>
<path d="M12.857 16.2408C13.6052 16.0706 14.3524 15.8929 15.1025 15.7322C19.7674 14.7292 24.4324 13.7263 29.1001 12.7357C29.3349 12.6863 29.6011 12.7072 29.8388 12.7576C30.7106 12.9429 31.5766 13.1549 32.4446 13.3565C32.4455 13.4002 32.4474 13.4439 32.4484 13.4867C31.9997 13.6046 31.5519 13.7291 31.1013 13.8385C26.2168 15.0154 21.3332 16.1914 16.4458 17.3559C16.231 17.4073 15.9743 17.3949 15.7623 17.3303C14.784 17.0308 13.8153 16.7019 12.8428 16.3825C12.8475 16.3349 12.8513 16.2874 12.8561 16.2399L12.857 16.2408Z" fill="white"/>
<path d="M9.05426 26.5696C8.23573 26.2654 7.43812 25.9774 6.65002 25.6646C6.57207 25.6342 6.50932 25.4602 6.50932 25.3537C6.49221 21.9342 6.48365 18.5137 6.4751 15.0941C6.4751 15.0333 6.49982 14.9724 6.53309 14.8213C7.36492 15.0979 8.18155 15.3622 8.99056 15.6512C9.06376 15.6769 9.11795 15.8613 9.11795 15.9725C9.12271 19.4244 9.11985 22.8763 9.11605 26.3282C9.11605 26.3862 9.08753 26.4441 9.05426 26.5706V26.5696Z" fill="white"/>
<path d="M25.4143 11.8408C24.6823 12.0014 23.9503 12.1669 23.2164 12.3209C18.7473 13.2554 14.2791 14.1927 9.80721 15.1101C9.48398 15.1767 9.11988 15.1396 8.7938 15.0654C8.34033 14.9628 7.90492 14.7802 7.46191 14.631C7.46191 14.5901 7.46191 14.5483 7.46286 14.5074C8.14354 14.3762 8.82422 14.2403 9.50585 14.1138C14.2915 13.2278 19.0743 12.3294 23.8647 11.4805C24.3562 11.393 24.9 11.5993 25.4191 11.6697L25.4143 11.8408Z" fill="white"/>
<path d="M10.4345 15.4627C11.8205 15.169 13.2066 14.8724 14.5936 14.5815C18.459 13.7705 22.3273 12.9739 26.188 12.1392C26.8668 11.9928 27.4457 12.2038 28.0731 12.4577C27.7357 12.5394 27.3991 12.6278 27.0597 12.701C22.0877 13.7753 17.1139 14.84 12.1447 15.9285C11.4935 16.0711 10.9982 15.7251 10.4307 15.611C10.4316 15.5616 10.4335 15.5122 10.4345 15.4618V15.4627Z" fill="white"/>
<path d="M9.57209 15.8137C10.1967 16.0172 10.749 16.1873 11.2899 16.386C11.367 16.4145 11.4325 16.5847 11.4335 16.6893C11.4411 18.4138 11.4373 20.1393 11.4373 21.8638C11.4373 22.2374 11.2909 22.2925 10.9639 22.1319C10.5808 21.9427 10.1701 21.8115 9.78219 21.6318C9.69093 21.59 9.5816 21.4569 9.58065 21.3656C9.56924 19.5498 9.57209 17.735 9.57209 15.8147V15.8137Z" fill="white"/>
<path d="M11.3302 27.4184C10.7484 27.1941 10.0211 27.1266 9.71408 26.732C9.43078 26.3679 9.58289 25.653 9.57338 25.0921C9.55912 24.1624 9.56958 23.2317 9.56958 22.2363C10.1733 22.4179 10.7218 22.5738 11.2627 22.7544C11.3407 22.7801 11.4329 22.917 11.4329 23.0026C11.4357 24.44 11.4253 25.8774 11.4148 27.3148C11.4148 27.3386 11.3768 27.3623 11.3302 27.4175V27.4184Z" fill="white"/>
<path d="M33.395 18.1665C33.4799 18.6723 33.3151 18.9758 32.9006 19.0772C30.6323 19.6324 28.3659 20.1914 26.0948 20.7371C25.8828 20.7884 25.5605 21.008 25.4731 20.6088C25.3979 20.2646 25.6214 20.0545 25.9617 19.9718C27.3582 19.6324 28.7529 19.2873 30.1484 18.9461C31.0839 18.7169 32.0193 18.4907 32.9548 18.2644C33.0898 18.2321 33.2257 18.2045 33.395 18.1665Z" fill="white"/>
<path d="M33.3943 16.0893C33.5255 16.8118 33.5122 16.8318 32.8962 16.983C31.3038 17.3737 29.7133 17.772 28.1162 18.1447C27.9489 18.1836 27.7474 18.0743 27.561 18.0334C27.6894 17.8243 27.774 17.4906 27.9537 17.4288C28.5916 17.2073 29.2627 17.078 29.9206 16.9136C30.9758 16.6502 32.0311 16.385 33.0873 16.1245C33.1766 16.1026 33.2707 16.1026 33.3934 16.0884L33.3943 16.0893Z" fill="white"/>
<path d="M17.2074 25.5608C17.2074 24.9742 17.2235 24.3877 17.2007 23.8021C17.1883 23.4931 17.2901 23.3439 17.5943 23.2735C19.7048 22.7868 21.8143 22.2934 23.92 21.7867C24.2889 21.6982 24.4115 21.8028 24.4087 22.1707C24.3982 23.3429 24.3953 24.516 24.4115 25.6882C24.4153 25.9763 24.2803 26.0827 24.0426 26.1436C21.9293 26.6883 19.815 27.2302 17.7036 27.7816C17.3148 27.8833 17.1883 27.7549 17.2026 27.3652C17.2245 26.7634 17.2083 26.1607 17.2083 25.5589L17.2074 25.5608ZM23.9495 22.3371C23.8468 22.3152 23.8145 22.2972 23.7869 22.3038C21.8352 22.7611 19.8825 23.2155 17.9356 23.6937C17.8158 23.7232 17.6694 23.9475 17.6627 24.0873C17.6333 24.7499 17.6475 25.4154 17.6466 26.0789C17.6466 26.4649 17.6466 26.8509 17.6466 27.31C18.0468 27.2102 18.3491 27.137 18.6505 27.0591C20.2561 26.6465 21.8628 26.2396 23.4637 25.8108C23.6434 25.7624 23.9238 25.5941 23.9286 25.4724C23.9656 24.4333 23.9495 23.3914 23.9495 22.3361V22.3371Z" fill="black"/>
<path d="M18.5715 20.3495C18.5715 20.7117 18.5905 21.0749 18.562 21.4342C18.5515 21.5606 18.4251 21.6766 18.3519 21.7983C18.2673 21.689 18.1133 21.5816 18.1104 21.4694C18.0895 20.7146 18.0895 19.9597 18.1104 19.2049C18.1133 19.0899 18.2597 18.9796 18.3386 18.8665C18.4165 18.9834 18.5506 19.0956 18.5601 19.2173C18.5895 19.5928 18.5705 19.9721 18.5705 20.3495H18.5715Z" fill="black"/>
<path d="M21.6034 19.5762C21.6034 19.9565 21.6196 20.3377 21.5939 20.7161C21.5863 20.8273 21.4618 20.93 21.3905 21.0364C21.303 20.9281 21.1443 20.8206 21.1405 20.7103C21.1186 19.9508 21.1214 19.1902 21.1395 18.4297C21.1424 18.3204 21.2688 18.2148 21.3372 18.1074C21.4181 18.2167 21.5588 18.3223 21.5683 18.4373C21.5977 18.8147 21.5797 19.1969 21.5797 19.5772C21.5873 19.5772 21.5958 19.5772 21.6034 19.5772V19.5762Z" fill="black"/>
<path d="M20.6889 19.84C20.6889 20.2203 20.7042 20.6015 20.6794 20.9799C20.6728 21.0826 20.5425 21.1767 20.4684 21.2756C20.3942 21.1757 20.2573 21.0778 20.2545 20.9761C20.2383 20.2003 20.2374 19.4237 20.2602 18.6479C20.2631 18.5376 20.418 18.4321 20.5026 18.3237C20.5644 18.4331 20.6728 18.5405 20.6794 18.6527C20.7013 19.0472 20.688 19.4446 20.688 19.84H20.6889Z" fill="black"/>
<path d="M19.4642 20.1413C19.4642 20.5187 19.4775 20.898 19.4556 21.2745C19.4499 21.3696 19.334 21.458 19.2684 21.5492C19.1856 21.4589 19.0345 21.3705 19.0326 21.2783C19.0136 20.4921 19.0126 19.704 19.0297 18.9178C19.0316 18.8132 19.1666 18.7106 19.2398 18.6069C19.314 18.7087 19.4452 18.8075 19.4518 18.914C19.4766 19.3218 19.4623 19.7316 19.4623 20.1413H19.4661H19.4642Z" fill="black"/>
<path d="M22.3343 19.2876C22.3343 18.9083 22.3181 18.528 22.3447 18.1515C22.3523 18.0441 22.4835 17.9462 22.5577 17.8435C22.6299 17.9462 22.763 18.0479 22.7659 18.1525C22.783 18.9415 22.7801 19.7315 22.7649 20.5206C22.763 20.6138 22.6432 20.7041 22.5776 20.7953C22.4949 20.7031 22.3466 20.6157 22.34 20.5187C22.3133 20.1099 22.3285 19.6983 22.3285 19.2876C22.3304 19.2876 22.3323 19.2876 22.3343 19.2876Z" fill="black"/>
<path d="M17.2869 20.4445C17.2869 20.0823 17.2716 19.7182 17.2964 19.3579C17.304 19.2495 17.4228 19.1488 17.4912 19.0442C17.5721 19.1393 17.7204 19.2324 17.7223 19.3294C17.7422 20.1165 17.7422 20.9046 17.7242 21.6927C17.7223 21.7907 17.5759 21.8848 17.497 21.9808C17.4276 21.8781 17.3049 21.7793 17.2992 21.6737C17.2754 21.2649 17.2897 20.8552 17.2897 20.4455H17.2878L17.2869 20.4445Z" fill="black"/>
<path d="M24.013 19.0127C24.013 19.392 24.032 19.7732 24.0015 20.1497C23.993 20.2628 23.8475 20.3645 23.7648 20.472C23.7011 20.3645 23.5842 20.259 23.5823 20.1506C23.5661 19.3768 23.5652 18.602 23.5823 17.8272C23.5842 17.7255 23.7173 17.6257 23.7896 17.5249C23.8637 17.6257 23.9958 17.7217 24.0025 17.8272C24.0282 18.2208 24.013 18.6172 24.013 19.0117V19.0127Z" fill="black"/>
<path d="M23.9485 22.336C23.9485 23.3912 23.9647 24.4331 23.9276 25.4722C23.9228 25.593 23.6424 25.7622 23.4627 25.8107C21.8618 26.2394 20.2552 26.6463 18.6495 27.0589C18.3481 27.1359 18.0458 27.21 17.6456 27.3099C17.6456 26.8507 17.6456 26.4647 17.6456 26.0787C17.6456 25.4142 17.6323 24.7497 17.6617 24.0871C17.6684 23.9473 17.8138 23.723 17.9346 23.6935C19.8815 23.2144 21.8342 22.7609 23.7859 22.3036C23.8135 22.297 23.8468 22.3151 23.9485 22.3369V22.336ZM19.9319 24.2715C21.1174 23.9692 22.2354 23.6897 23.3477 23.3903C23.4256 23.3693 23.4646 23.2077 23.5216 23.1117C23.4142 23.067 23.2925 22.9653 23.2013 22.9872C22.0966 23.2515 20.9957 23.5291 19.8977 23.82C19.815 23.8418 19.7047 24.0006 19.7171 24.0785C19.7304 24.1612 19.8739 24.224 19.93 24.2715H19.9319ZM20.4082 26.0179C21.433 25.7565 22.3961 25.5159 23.3543 25.2545C23.4313 25.2336 23.4694 25.071 23.5255 24.9741C23.4199 24.9313 23.3011 24.8334 23.2108 24.8543C22.2582 25.0786 21.3094 25.3163 20.3645 25.5692C20.2799 25.592 20.1715 25.7498 20.182 25.8325C20.1905 25.9086 20.3426 25.9685 20.4082 26.0179ZM21.1212 24.725C20.8664 24.6546 20.7362 24.5729 20.6316 24.5976C19.834 24.7887 19.0383 24.9921 18.2492 25.2155C18.158 25.2412 18.1076 25.4152 18.0382 25.5198C18.1428 25.5587 18.2597 25.6509 18.35 25.6291C19.1324 25.4427 19.912 25.2412 20.6887 25.0283C20.8046 24.9969 20.8978 24.8847 21.1222 24.724L21.1212 24.725ZM21.5129 24.8372C22.1669 24.6689 22.7497 24.5282 23.3239 24.3609C23.4123 24.3352 23.4656 24.1869 23.535 24.0957C23.4228 24.0424 23.2963 23.9255 23.2003 23.9464C22.6309 24.0709 22.0652 24.2183 21.5053 24.3818C21.4197 24.4065 21.3113 24.5548 21.318 24.6375C21.3247 24.7202 21.4635 24.7915 21.5129 24.8372ZM18.1133 26.7309C18.176 26.6739 18.2378 26.6178 18.3006 26.5607C18.5563 26.4942 18.8187 26.4419 19.0649 26.3516C19.1334 26.3259 19.2199 26.1462 19.1933 26.1044C19.141 26.0227 19.0079 25.9323 18.9204 25.9437C18.6751 25.9751 18.4308 26.0407 18.1979 26.1253C18.12 26.1538 18.0344 26.2755 18.0287 26.3592C18.0201 26.4799 18.0819 26.6064 18.1133 26.73V26.7309ZM18.2987 24.7526C18.4765 24.6252 18.6153 24.5254 18.7541 24.4265C18.658 24.3504 18.5354 24.1936 18.4717 24.2145C18.3063 24.2696 18.1675 24.4027 18.0182 24.5054C18.0981 24.5757 18.1789 24.647 18.2987 24.7535V24.7526ZM19.6886 26.285C19.7998 26.1272 19.9129 26.035 19.9167 25.9371C19.9196 25.8725 19.7466 25.7299 19.6886 25.747C19.5802 25.7783 19.4984 25.901 19.4062 25.9856C19.4813 26.0645 19.5555 26.1443 19.6886 26.285Z" fill="white"/>
<path d="M19.9327 24.2725C19.8756 24.2259 19.7321 24.1631 19.7197 24.0795C19.7073 24.0015 19.8176 23.8428 19.9003 23.8209C20.9984 23.53 22.0992 23.2515 23.2039 22.9881C23.2952 22.9663 23.4168 23.0689 23.5243 23.1127C23.4672 23.2087 23.4273 23.3703 23.3503 23.3912C22.238 23.6897 21.12 23.9702 19.9346 24.2725H19.9327Z" fill="black"/>
<path d="M20.409 26.0181C20.3443 25.9696 20.1922 25.9097 20.1827 25.8327C20.1732 25.75 20.2816 25.5922 20.3652 25.5694C21.3102 25.3165 22.259 25.0788 23.2115 24.8545C23.3019 24.8335 23.4207 24.9315 23.5262 24.9742C23.4701 25.0712 23.4321 25.2338 23.3551 25.2547C22.3968 25.5161 21.4338 25.7566 20.409 26.0181Z" fill="black"/>
<path d="M21.1221 24.7249C20.8986 24.8856 20.8045 24.9968 20.6885 25.0292C19.9128 25.2412 19.1333 25.4427 18.3499 25.63C18.2596 25.6518 18.1427 25.5596 18.0381 25.5206C18.1075 25.4151 18.1569 25.2421 18.2491 25.2164C19.0382 24.993 19.8339 24.7886 20.6315 24.5985C20.7361 24.5738 20.8663 24.6555 21.1211 24.7259L21.1221 24.7249Z" fill="black"/>
<path d="M21.513 24.8371C21.4636 24.7905 21.3248 24.7192 21.3182 24.6375C21.3115 24.5548 21.4199 24.4064 21.5054 24.3817C22.0654 24.2192 22.631 24.0709 23.2005 23.9463C23.2965 23.9254 23.4229 24.0423 23.5351 24.0956C23.4657 24.1868 23.4125 24.3351 23.3241 24.3608C22.7489 24.5281 22.1662 24.6688 21.513 24.8371Z" fill="black"/>
<path d="M18.1142 26.731C18.0829 26.6074 18.0211 26.481 18.0296 26.3603C18.0353 26.2757 18.1209 26.154 18.1988 26.1264C18.4317 26.0418 18.6761 25.9762 18.9213 25.9448C19.0088 25.9334 19.1419 26.0237 19.1942 26.1055C19.2208 26.1473 19.1352 26.327 19.0658 26.3527C18.8187 26.4439 18.5572 26.4953 18.3015 26.5618C18.2388 26.6188 18.177 26.6749 18.1142 26.732V26.731Z" fill="black"/>
<path d="M18.299 24.7528C18.1783 24.6464 18.0984 24.576 18.0186 24.5047C18.1678 24.403 18.3076 24.269 18.472 24.2138C18.5357 24.1929 18.6584 24.3498 18.7544 24.4258C18.6156 24.5256 18.4768 24.6245 18.299 24.7519V24.7528Z" fill="black"/>
<path d="M19.6896 26.2853C19.5565 26.1437 19.4814 26.0648 19.4072 25.9859C19.4994 25.9013 19.5812 25.7786 19.6896 25.7473C19.7476 25.7302 19.9206 25.8728 19.9177 25.9374C19.9139 26.0353 19.8008 26.1275 19.6896 26.2853Z" fill="black"/>
</g>
</g>
<defs>
<clipPath id="clip0_1086_12375">
<rect width="40" height="40" fill="white"/>
</clipPath>
<clipPath id="clip1_1086_12375">
<rect width="28" height="18.5751" fill="white" transform="translate(6 11)"/>
</clipPath>
</defs>
</svg>
