<svg width="40" height="40" viewBox="0 0 40 40" fill="none" xmlns="http://www.w3.org/2000/svg">
<g clip-path="url(#clip0_1086_12407)">
<path d="M20.0025 40.005C31.0496 40.005 40.005 31.0496 40.005 20.0025C40.005 8.95543 31.0496 0 20.0025 0C8.95543 0 0 8.95543 0 20.0025C0 31.0496 8.95543 40.005 20.0025 40.005Z" fill="#E5F5E9"/>
<path d="M11.1768 11.3975H25.9936V30.3842H11.1768C10.9735 30.3842 10.8086 30.2193 10.8086 30.0161V11.7656C10.8086 11.5624 10.9735 11.3975 11.1768 11.3975Z" fill="white" stroke="black" stroke-width="0.25621" stroke-linecap="round" stroke-linejoin="round"/>
<path d="M29.1907 30.3842L27.7906 29.831C27.663 29.7805 27.5213 29.7805 27.3942 29.831L25.9941 30.3842V11.3975H28.7519C28.9945 11.3975 29.1907 11.5942 29.1907 11.8362V30.3837V30.3842Z" fill="#D5E2FE" stroke="black" stroke-width="0.25621" stroke-miterlimit="10"/>
<path d="M14.3955 13.5773V10.0231C14.3955 7.73541 16.2672 5.86377 18.5549 5.86377C20.8426 5.86377 22.7143 7.73541 22.7143 10.0231V13.5773" stroke="black" stroke-width="0.252175" stroke-miterlimit="10"/>
<path d="M19.1265 4.7334C19.6807 4.45853 20.3036 4.3042 20.9613 4.3042C23.249 4.3042 25.1207 6.17584 25.1207 8.46357" stroke="black" stroke-width="0.252175" stroke-linecap="round" stroke-linejoin="round"/>
<path d="M14.3956 14.0353C14.6931 14.0353 14.9342 13.7941 14.9342 13.4967C14.9342 13.1992 14.6931 12.958 14.3956 12.958C14.0981 12.958 13.8569 13.1992 13.8569 13.4967C13.8569 13.7941 14.0981 14.0353 14.3956 14.0353Z" fill="#E5F5E9"/>
<path d="M22.6622 14.0353C22.9597 14.0353 23.2008 13.7941 23.2008 13.4967C23.2008 13.1992 22.9597 12.958 22.6622 12.958C22.3647 12.958 22.1235 13.1992 22.1235 13.4967C22.1235 13.7941 22.3647 14.0353 22.6622 14.0353Z" fill="#E5F5E9"/>
<path d="M18.561 26.2517C21.6083 26.2517 24.0786 23.7814 24.0786 20.7341C24.0786 17.6869 21.6083 15.2166 18.561 15.2166C15.5138 15.2166 13.0435 17.6869 13.0435 20.7341C13.0435 23.7814 15.5138 26.2517 18.561 26.2517Z" fill="#DCFACE"/>
<path d="M17.3532 22.1121L16.0878 20.8467C16.0068 20.7656 15.8972 20.7201 15.7828 20.7201C15.6683 20.7201 15.5587 20.7656 15.4777 20.8467C15.3966 20.9277 15.3511 21.0374 15.3511 21.1518C15.3511 21.2085 15.3622 21.2646 15.3839 21.317C15.4056 21.3695 15.4374 21.4171 15.4777 21.4569L17.0497 23.0289C17.2187 23.1979 17.4909 23.1979 17.6599 23.0289L21.6393 19.0495C21.7204 18.9685 21.7659 18.8588 21.7659 18.7444C21.7659 18.63 21.7204 18.5204 21.6393 18.4393C21.5583 18.3583 21.4486 18.3127 21.3342 18.3127C21.2198 18.3127 21.1102 18.3583 21.0291 18.4393L17.3532 22.1115V22.1121Z" fill="white" stroke="white" stroke-width="0.11282"/>
</g>
<defs>
<clipPath id="clip0_1086_12407">
<rect width="40" height="40" fill="white"/>
</clipPath>
</defs>
</svg>
