<?xml version="1.0" encoding="utf-8"?>
<!-- Generator: Adobe Illustrator 26.5.1, SVG Export Plug-In . SVG Version: 6.00 Build 0)  -->
<svg version="1.1" id="Слой_1" xmlns="http://www.w3.org/2000/svg" xmlns:xlink="http://www.w3.org/1999/xlink" x="0px" y="0px"
	 viewBox="0 0 23 20" style="enable-background:new 0 0 23 20;" xml:space="preserve">
<style type="text/css">
	.st0{fill:none;}
	.st1{fill:#FC2F3D;}
</style>
<g>
	<path class="st0" d="M12.6,19.1l-0.7,0.2C12.1,19.2,12.4,19.1,12.6,19.1z"/>
	<path class="st0" d="M10,18.9c0.5,0.2,0.9,0.4,1.5,0.4c0.1,0,0.1,0,0.2,0L10,18.9z"/>
	<path class="st0" d="M9.8,18.7H9.7c0.1,0.1,0.2,0.1,0.4,0.2L9.8,18.7z"/>
	<path class="st0" d="M12.7,19c0.2-0.1,0.5-0.2,0.7-0.3H13L12.7,19z"/>
	<path class="st1" d="M18.4,1.4c-2.1-0.9-4.6-0.7-6.9,1.3c-2.3-2-4.8-2.3-6.9-1.3l0,0c-2.2,1-3.7,3.4-3.7,6.1c0,2.6,1.1,4.7,2.5,6.3
		C4.6,15,6,16.1,7.2,17c0.3,0.2,0.5,0.4,0.8,0.6l0,0c0.5,0.4,1,0.8,1.6,1.1l0,0c0.6,0.3,1.2,0.6,1.9,0.6s1.4-0.3,1.9-0.6h0
		c0.6-0.3,1.1-0.7,1.6-1.1c0.3-0.2,0.5-0.4,0.8-0.6l0,0c1.2-0.9,2.6-2,3.8-3.3h0c1.4-1.6,2.5-3.6,2.5-6.3
		C22.1,4.8,20.6,2.4,18.4,1.4z M12.7,19"/>
</g>
</svg>
