<svg width="21" height="19" viewBox="0 0 21 19" fill="none" xmlns="http://www.w3.org/2000/svg">
<mask id="path-1-inside-1_715_28697" fill="white">
<path fill-rule="evenodd" clip-rule="evenodd" d="M4.27228 1.84642C2.65186 2.58679 1.46512 4.34884 1.46512 6.44981C1.46512 8.59572 2.34419 10.2503 3.60223 11.6686C4.64051 12.8367 5.8966 13.8057 7.12144 14.7492C7.41251 14.9739 7.70163 15.1975 7.98586 15.4212C8.49963 15.8266 8.95772 16.1811 9.40019 16.44C9.84167 16.6978 10.1972 16.816 10.5 16.816C10.8028 16.816 11.1583 16.6988 11.5998 16.44C12.0423 16.1811 12.5004 15.8266 13.0141 15.4212C13.2974 15.1966 13.5875 14.9739 13.8786 14.7492C15.1034 13.8057 16.3595 12.8367 17.3978 11.6686C18.6568 10.2503 19.5349 8.59572 19.5349 6.44981C19.5349 4.34981 18.3481 2.58679 16.7277 1.84642C15.1532 1.12655 13.0376 1.31702 11.0274 3.40628C10.9591 3.47718 10.8772 3.53357 10.7866 3.57209C10.6959 3.61061 10.5985 3.63046 10.5 3.63046C10.4015 3.63046 10.3041 3.61061 10.2134 3.57209C10.1228 3.53357 10.0409 3.47718 9.97256 3.40628C7.96242 1.31702 5.84679 1.12655 4.27228 1.84642ZM10.5 1.88158C8.24177 -0.140282 5.71298 -0.423538 3.66279 0.51316C1.50028 1.50456 0 3.80186 0 6.45079C0 9.05381 1.08419 11.0405 2.5073 12.6424C3.64619 13.9248 5.04 14.9983 6.27167 15.9457C6.55102 16.1606 6.82158 16.3696 7.07846 16.5728C7.57953 16.9674 8.11674 17.3874 8.66079 17.7058C9.20484 18.0233 9.82605 18.2821 10.5 18.2821C11.174 18.2821 11.7952 18.0233 12.3392 17.7058C12.8842 17.3874 13.4205 16.9674 13.9215 16.5728C14.1891 16.362 14.458 16.153 14.7283 15.9457C15.959 14.9983 17.3538 13.9239 18.4927 12.6424C19.9158 11.0405 21 9.05381 21 6.45079C21 3.80186 19.5007 1.50456 17.3372 0.515113C15.287 -0.422561 12.7582 -0.139306 10.5 1.88158Z"/>
</mask>
<path d="M4.27228 1.84642L8.42806 10.942L8.43028 10.941L4.27228 1.84642ZM3.60223 11.6686L-3.87868 18.3045L-3.87221 18.3118L3.60223 11.6686ZM7.12144 14.7492L13.2314 6.83286L13.224 6.8272L7.12144 14.7492ZM7.98586 15.4212L14.1799 7.57047L14.17 7.56272L7.98586 15.4212ZM9.40019 16.44L4.35081 25.0715L4.35672 25.075L9.40019 16.44ZM11.5998 16.44L6.55044 7.80839L6.54213 7.81326L11.5998 16.44ZM13.0141 15.4212L19.2082 23.2719L19.2181 23.2641L19.2281 23.2562L13.0141 15.4212ZM13.8786 14.7492L7.77595 6.8272L7.76862 6.83286L13.8786 14.7492ZM17.3978 11.6686L24.8722 18.3118L24.8761 18.3074L17.3978 11.6686ZM16.7277 1.84642L12.5697 10.941L12.5719 10.942L16.7277 1.84642ZM11.0274 3.40628L18.2274 10.346L18.2336 10.3396L11.0274 3.40628ZM9.97256 3.40628L2.76636 10.3396L2.77256 10.346L9.97256 3.40628ZM10.5 1.88158L3.8296 9.3318L10.4984 15.3026L17.1686 9.3334L10.5 1.88158ZM3.66279 0.51316L-0.492866 -8.58248L-0.504606 -8.5771L3.66279 0.51316ZM2.5073 12.6424L9.98454 6.00227L9.98316 6.00072L2.5073 12.6424ZM6.27167 15.9457L0.174565 23.872L0.174566 23.872L6.27167 15.9457ZM7.07846 16.5728L0.875254 24.4163L0.88335 24.4227L0.891459 24.4291L7.07846 16.5728ZM8.66079 17.7058L3.60956 26.3363L3.62111 26.343L8.66079 17.7058ZM12.3392 17.7058L17.3789 26.343L17.3837 26.3402L12.3392 17.7058ZM13.9215 16.5728L20.1085 24.4291L20.1107 24.4274L13.9215 16.5728ZM14.7283 15.9457L20.8124 23.882L20.8204 23.8758L20.8285 23.8696L14.7283 15.9457ZM18.4927 12.6424L25.9674 19.2853L25.9686 19.284L18.4927 12.6424ZM17.3372 0.515113L13.178 9.60911L13.1782 9.60919L17.3372 0.515113ZM0.116494 -7.24916C-5.21807 -4.81178 -8.53488 0.606419 -8.53488 6.44981H11.4651C11.4651 8.09125 10.5218 9.98536 8.42806 10.942L0.116494 -7.24916ZM-8.53488 6.44981C-8.53488 11.716 -6.24782 15.6337 -3.87868 18.3045L11.0831 5.0326C10.9604 4.89418 11.0779 4.99219 11.219 5.31371C11.2907 5.47708 11.3567 5.67164 11.4026 5.8872C11.4486 6.10339 11.4651 6.2964 11.4651 6.44981H-8.53488ZM-3.87221 18.3118C-2.10425 20.301 -0.0802659 21.8245 1.01884 22.6712L13.224 6.8272C11.8735 5.78681 11.3853 5.37253 11.0767 5.02531L-3.87221 18.3118ZM1.0115 22.6656C1.30036 22.8885 1.55735 23.0874 1.80168 23.2797L14.17 7.56272C13.8459 7.30764 13.5247 7.05922 13.2314 6.83286L1.0115 22.6656ZM1.79184 23.2719C2.22195 23.6113 3.21204 24.4053 4.35082 25.0715L14.4496 7.80839C14.5466 7.86516 14.6111 7.90753 14.6376 7.92534C14.664 7.94308 14.6651 7.94473 14.6339 7.92188C14.6026 7.89888 14.552 7.86097 14.473 7.79995C14.393 7.73817 14.3007 7.66579 14.1799 7.57048L1.79184 23.2719ZM4.35672 25.075C5.48936 25.7365 7.65571 26.816 10.5 26.816V6.816C12.7387 6.816 14.194 7.65912 14.4436 7.80494L4.35672 25.075ZM10.5 26.816C13.3352 26.816 15.4997 25.7454 16.6575 25.0666L6.54213 7.81326C6.81691 7.65217 8.27034 6.816 10.5 6.816V26.816ZM16.6492 25.0715C17.788 24.4053 18.778 23.6113 19.2082 23.2719L6.82012 7.57048C6.69931 7.66579 6.60701 7.73817 6.527 7.79995C6.44797 7.86097 6.39741 7.89888 6.36606 7.92188C6.3349 7.94473 6.33598 7.94308 6.36241 7.92534C6.38894 7.90753 6.45341 7.86516 6.55044 7.80839L16.6492 25.0715ZM19.2281 23.2562C19.4454 23.0838 19.6662 22.9143 19.9885 22.6656L7.76862 6.83286C7.50879 7.0334 7.14936 7.30931 6.80019 7.58624L19.2281 23.2562ZM19.9812 22.6712C21.0803 21.8245 23.1043 20.301 24.8722 18.3118L9.92333 5.02531C9.61472 5.37253 9.12653 5.78681 7.77595 6.8272L19.9812 22.6712ZM24.8761 18.3074C27.2509 15.6323 29.5349 11.7135 29.5349 6.44981H9.53488C9.53488 6.29719 9.55125 6.10468 9.59723 5.88869C9.64309 5.67331 9.709 5.4786 9.78086 5.3148C9.92238 4.9922 10.0408 4.89296 9.91941 5.02972L24.8761 18.3074ZM29.5349 6.44981C29.5349 0.608507 26.219 -4.81134 20.8835 -7.24916L12.5719 10.942C10.4772 9.98491 9.53488 8.09112 9.53488 6.44981H29.5349ZM20.8857 -7.24815C14.9784 -9.94895 8.40095 -8.28698 3.82125 -3.52703L18.2336 10.3396C18.1152 10.4627 17.4718 11.0523 16.2263 11.3312C14.9683 11.6129 13.6679 11.4431 12.5697 10.941L20.8857 -7.24815ZM3.82744 -3.53346C4.69193 -4.43037 5.72838 -5.1438 6.87487 -5.6311L14.6982 12.7753C16.026 12.2109 17.2263 11.3847 18.2274 10.346L3.82744 -3.53346ZM6.87487 -5.6311C8.02135 -6.1184 9.25429 -6.36954 10.5 -6.36954V13.6305C11.9426 13.6305 13.3705 13.3396 14.6982 12.7753L6.87487 -5.6311ZM10.5 -6.36954C11.7457 -6.36954 12.9787 -6.1184 14.1251 -5.6311L6.30176 12.7753C7.62949 13.3396 9.05735 13.6305 10.5 13.6305V-6.36954ZM14.1251 -5.6311C15.2716 -5.1438 16.3081 -4.43037 17.1726 -3.53346L2.77256 10.346C3.77371 11.3847 4.97402 12.2109 6.30176 12.7753L14.1251 -5.6311ZM17.1788 -3.52703C12.5991 -8.28698 6.0216 -9.94895 0.11428 -7.24815L8.43028 10.941C7.33206 11.4431 6.03165 11.6129 4.77374 11.3312C3.52817 11.0523 2.88482 10.4627 2.76636 10.3396L17.1788 -3.52703ZM17.1704 -5.56864C12.2378 -9.98496 5.50987 -11.325 -0.492862 -8.58247L7.81844 9.60879C7.04541 9.96198 6.1385 10.0897 5.2667 9.93595C4.39933 9.78299 3.92806 9.41995 3.8296 9.3318L17.1704 -5.56864ZM-0.504606 -8.5771C-6.3705 -5.8879 -10 0.0590764 -10 6.45079H10C10 7.54464 9.37106 8.89701 7.83019 9.60342L-0.504606 -8.5771ZM-10 6.45079C-10 12.1755 -7.50658 16.4272 -4.96855 19.284L9.98316 6.00072C9.79054 5.78391 9.81114 5.75347 9.876 5.90116C9.90952 5.97748 9.94438 6.07801 9.96909 6.19316C9.99403 6.30936 10 6.40046 10 6.45079H-10ZM-4.96993 19.2825C-3.1005 21.3876 -0.941603 23.0134 0.174565 23.872L12.3688 8.01948C11.7296 7.5278 11.2589 7.16319 10.8246 6.7947C10.402 6.43613 10.1421 6.17968 9.98454 6.00227L-4.96993 19.2825ZM0.174566 23.872C0.44894 24.083 0.674496 24.2575 0.875254 24.4163L13.2817 8.72931C12.9687 8.48176 12.6531 8.23819 12.3688 8.01948L0.174566 23.872ZM0.891459 24.4291C1.30722 24.7565 2.37403 25.6132 3.60956 26.3363L13.712 9.07534C13.8374 9.1487 13.867 9.17698 13.7639 9.10146C13.7184 9.06809 13.657 9.0219 13.5715 8.95592C13.4839 8.88829 13.3896 8.81431 13.2655 8.71652L0.891459 24.4291ZM3.62111 26.343C4.85429 27.0626 7.28553 28.2821 10.5 28.2821V8.2821C12.3666 8.2821 13.5554 8.98394 13.7005 9.06859L3.62111 26.343ZM10.5 28.2821C13.7145 28.2821 16.1457 27.0626 17.3789 26.343L7.29953 9.06859C7.44462 8.98394 8.63344 8.2821 10.5 8.2821V28.2821ZM17.3837 26.3402C18.6269 25.6139 19.6998 24.7509 20.1085 24.4291L7.73453 8.71652C7.60881 8.81553 7.51452 8.88959 7.42638 8.95767C7.34065 9.02389 7.27961 9.06982 7.23467 9.10276C7.1329 9.17737 7.16554 9.14687 7.29473 9.0714L17.3837 26.3402ZM20.1107 24.4274C20.3434 24.244 20.5773 24.0622 20.8124 23.882L8.64425 8.00948C8.33872 8.2437 8.03475 8.47996 7.73237 8.71823L20.1107 24.4274ZM20.8285 23.8696C21.9414 23.0128 24.0999 21.3867 25.9674 19.2853L11.018 5.99944C10.8598 6.17738 10.5989 6.43468 10.1749 6.79444C9.73928 7.1641 9.26782 7.5294 8.62818 8.02182L20.8285 23.8696ZM25.9686 19.284C28.5066 16.4272 31 12.1755 31 6.45079H11C11 6.40046 11.006 6.30936 11.0309 6.19316C11.0556 6.07801 11.0905 5.97748 11.124 5.90116C11.1889 5.75347 11.2095 5.78391 11.0168 6.00072L25.9686 19.284ZM31 6.45079C31 0.0628442 27.374 -5.89088 21.4963 -8.57897L13.1782 9.60919C11.6274 8.9 11 7.54087 11 6.45079H31ZM21.4964 -8.57888C15.4923 -11.3249 8.76357 -9.98404 3.83139 -5.57024L17.1686 9.3334C17.0701 9.42153 16.5988 9.78448 15.7313 9.93728C14.8592 10.0909 13.9517 9.96297 13.178 9.60911L21.4964 -8.57888Z" fill="#FC2F3D" mask="url(#path-1-inside-1_715_28697)"/>
</svg>
