<svg width="26" height="26" viewBox="0 0 26 26" fill="none" xmlns="http://www.w3.org/2000/svg">
<path d="M8.12498 4.3335C6.03415 4.3335 4.33331 6.03433 4.33331 8.12516C4.33331 10.216 6.03415 11.9168 8.12498 11.9168C10.2158 11.9168 11.9166 10.216 11.9166 8.12516C11.9166 6.03433 10.2158 4.3335 8.12498 4.3335ZM8.12498 9.75016C7.22581 9.75016 6.49998 9.02433 6.49998 8.12516C6.49998 7.226 7.22581 6.50016 8.12498 6.50016C9.02415 6.50016 9.74998 7.226 9.74998 8.12516C9.74998 9.02433 9.02415 9.75016 8.12498 9.75016ZM17.875 14.0835C15.7841 14.0835 14.0833 15.7843 14.0833 17.8752C14.0833 19.966 15.7841 21.6668 17.875 21.6668C19.9658 21.6668 21.6666 19.966 21.6666 17.8752C21.6666 15.7843 19.9658 14.0835 17.875 14.0835ZM17.875 19.5002C16.9758 19.5002 16.25 18.7743 16.25 17.8752C16.25 16.976 16.9758 16.2502 17.875 16.2502C18.7741 16.2502 19.5 16.976 19.5 17.8752C19.5 18.7743 18.7741 19.5002 17.875 19.5002ZM20.8975 5.10266C21.32 5.52516 21.32 6.20766 20.8975 6.63016L6.62998 20.8977C6.52968 20.998 6.41061 21.0775 6.27957 21.1318C6.14852 21.1861 6.00807 21.214 5.86623 21.214C5.72439 21.214 5.58394 21.1861 5.45289 21.1318C5.32185 21.0775 5.20278 20.998 5.10248 20.8977C5.00218 20.7974 4.92262 20.6783 4.86834 20.5473C4.81406 20.4162 4.78612 20.2758 4.78612 20.1339C4.78612 19.9921 4.81406 19.8516 4.86834 19.7206C4.92262 19.5895 5.00218 19.4705 5.10248 19.3702L19.37 5.10266C19.4702 5.00223 19.5892 4.92256 19.7203 4.86819C19.8514 4.81383 19.9918 4.78585 20.1337 4.78585C20.2756 4.78585 20.4161 4.81383 20.5472 4.86819C20.6782 4.92256 20.7973 5.00223 20.8975 5.10266Z" fill="#FC2F3D"/>
</svg>
