<svg width="92" height="92" viewBox="0 0 92 92" fill="none" xmlns="http://www.w3.org/2000/svg">
<g id="Frame" clip-path="url(#clip0_1026_13900)">
<g id="&#208;&#161;&#208;&#187;&#208;&#190;&#208;&#185; 4">
<path id="Vector" d="M46.0058 92.0116C71.4141 92.0116 92.0116 71.4141 92.0116 46.0058C92.0116 20.5975 71.4141 0 46.0058 0C20.5975 0 0 20.5975 0 46.0058C0 71.4141 20.5975 92.0116 46.0058 92.0116Z" fill="#DCFACE"/>
</g>
<g id="&#208;&#161;&#208;&#187;&#208;&#190;&#208;&#185; 3">
<path id="Vector_2" d="M25.7067 26.2144H59.7853V69.8839H25.7067C25.2392 69.8839 24.8599 69.5046 24.8599 69.0371V27.0612C24.8599 26.5937 25.2392 26.2144 25.7067 26.2144Z" fill="white" stroke="#1D1D1B" stroke-width="0.589283" stroke-linecap="round" stroke-linejoin="round"/>
<path id="Vector_3" d="M67.1387 69.8839L63.9186 68.6114C63.6251 68.4954 63.2991 68.4954 63.0068 68.6114L59.7866 69.8839V26.2144H66.1295C66.6875 26.2144 67.1387 26.6668 67.1387 27.2236V69.8827V69.8839Z" fill="#D5E2FE" stroke="#1D1D1B" stroke-width="0.589283" stroke-miterlimit="10"/>
<path id="Vector_4" d="M33.1099 31.2278V23.0533C33.1099 17.7915 37.4146 13.4867 42.6764 13.4867C47.9382 13.4867 52.243 17.7915 52.243 23.0533V31.2278" stroke="#1D1D1B" stroke-width="0.580003" stroke-miterlimit="10"/>
<path id="Vector_5" d="M43.9907 10.8872C45.2656 10.255 46.6982 9.90002 48.2108 9.90002C53.4726 9.90002 57.7774 14.2048 57.7774 19.4666" stroke="#1D1D1B" stroke-width="0.580003" stroke-linecap="round" stroke-linejoin="round"/>
<path id="Vector_6" d="M33.1095 32.2812C33.7937 32.2812 34.3484 31.7266 34.3484 31.0424C34.3484 30.3581 33.7937 29.8035 33.1095 29.8035C32.4253 29.8035 31.8706 30.3581 31.8706 31.0424C31.8706 31.7266 32.4253 32.2812 33.1095 32.2812Z" fill="#FFB904"/>
<path id="Vector_7" d="M52.1232 32.2812C52.8074 32.2812 53.362 31.7266 53.362 31.0424C53.362 30.3581 52.8074 29.8035 52.1232 29.8035C51.4389 29.8035 50.8843 30.3581 50.8843 31.0424C50.8843 31.7266 51.4389 32.2812 52.1232 32.2812Z" fill="#FFB904"/>
</g>
<g id="&#208;&#161;&#208;&#187;&#208;&#190;&#208;&#185; 5">
<g id="Group">
<path id="Vector_8" d="M42.6904 60.3809C49.6992 60.3809 55.3809 54.6992 55.3809 47.6904C55.3809 40.6817 49.6992 35 42.6904 35C35.6817 35 30 40.6817 30 47.6904C30 54.6992 35.6817 60.3809 42.6904 60.3809Z" fill="#04B600"/>
<path id="Vector_9" d="M39.9126 50.8594L37.0022 47.949C36.8158 47.7627 36.5636 47.6579 36.3005 47.6579C36.0373 47.6579 35.7852 47.7627 35.5988 47.949C35.4124 48.1354 35.3076 48.3876 35.3076 48.6508C35.3076 48.7811 35.3332 48.9102 35.3831 49.0308C35.4331 49.1514 35.5062 49.2611 35.5988 49.3525L39.2145 52.9682C39.6031 53.3568 40.2293 53.3568 40.6179 52.9682L49.7706 43.8155C49.957 43.6292 50.0617 43.377 50.0617 43.1138C50.0617 42.8507 49.957 42.5985 49.7706 42.4121C49.5842 42.2257 49.332 42.121 49.0689 42.121C48.8057 42.121 48.5536 42.2257 48.3672 42.4121L39.9126 50.8582V50.8594Z" fill="white" stroke="white" stroke-width="0.259486"/>
</g>
</g>
</g>
<defs>
<clipPath id="clip0_1026_13900">
<rect width="92" height="92" fill="white"/>
</clipPath>
</defs>
</svg>
