<svg width="16" height="16" viewBox="0 0 16 16" fill="none" xmlns="http://www.w3.org/2000/svg">
<g id="mingcute:time-line" clip-path="url(#clip0_653_30613)">
<g id="Group">
<path id="Vector" d="M8.00004 1.33331C11.682 1.33331 14.6667 4.31798 14.6667 7.99998C14.6667 11.682 11.682 14.6666 8.00004 14.6666C4.31804 14.6666 1.33337 11.682 1.33337 7.99998C1.33337 4.31798 4.31804 1.33331 8.00004 1.33331ZM8.00004 2.66665C6.58555 2.66665 5.229 3.22855 4.2288 4.22874C3.22861 5.22894 2.66671 6.58549 2.66671 7.99998C2.66671 9.41447 3.22861 10.771 4.2288 11.7712C5.229 12.7714 6.58555 13.3333 8.00004 13.3333C9.41453 13.3333 10.7711 12.7714 11.7713 11.7712C12.7715 10.771 13.3334 9.41447 13.3334 7.99998C13.3334 6.58549 12.7715 5.22894 11.7713 4.22874C10.7711 3.22855 9.41453 2.66665 8.00004 2.66665ZM8.00004 3.99998C8.16333 4 8.32093 4.05995 8.44296 4.16846C8.56498 4.27696 8.64294 4.42648 8.66204 4.58865L8.66671 4.66665V7.72398L10.4714 9.52865C10.5909 9.64862 10.6604 9.8096 10.6655 9.9789C10.6707 10.1482 10.6112 10.3131 10.4992 10.4402C10.3872 10.5672 10.231 10.6468 10.0624 10.6629C9.89378 10.679 9.72537 10.6303 9.59137 10.5266L9.52871 10.4713L7.52871 8.47131C7.42509 8.36761 7.35855 8.23265 7.33937 8.08731L7.33337 7.99998V4.66665C7.33337 4.48984 7.40361 4.32027 7.52864 4.19524C7.65366 4.07022 7.82323 3.99998 8.00004 3.99998Z" fill="#A0A0A0"/>
</g>
</g>
<defs>
<clipPath id="clip0_653_30613">
<rect width="16" height="16" fill="white"/>
</clipPath>
</defs>
</svg>
