<svg width="23" height="24" viewBox="0 0 23 24" fill="none" xmlns="http://www.w3.org/2000/svg">
<g id="tabler:truck-delivery">
<g id="Group">
<path id="Vector" d="M4.99573 16.664C4.99573 17.1551 5.1908 17.626 5.53803 17.9733C5.88526 18.3205 6.35621 18.5156 6.84727 18.5156C7.33833 18.5156 7.80927 18.3205 8.1565 17.9733C8.50373 17.626 8.69881 17.1551 8.69881 16.664C8.69881 16.173 8.50373 15.702 8.1565 15.3548C7.80927 15.0076 7.33833 14.8125 6.84727 14.8125C6.35621 14.8125 5.88526 15.0076 5.53803 15.3548C5.1908 15.702 4.99573 16.173 4.99573 16.664ZM14.2534 16.664C14.2534 17.1551 14.4485 17.626 14.7957 17.9733C15.143 18.3205 15.6139 18.5156 16.105 18.5156C16.596 18.5156 17.067 18.3205 17.4142 17.9733C17.7614 17.626 17.9565 17.1551 17.9565 16.664C17.9565 16.173 17.7614 15.702 17.4142 15.3548C17.067 15.0076 16.596 14.8125 16.105 14.8125C15.6139 14.8125 15.143 15.0076 14.7957 15.3548C14.4485 15.702 14.2534 16.173 14.2534 16.664Z" stroke="#5E5E5E" stroke-width="1.85154" stroke-linecap="round" stroke-linejoin="round"/>
<path id="Vector_2" d="M4.99557 16.6639H3.14403V12.9608M2.21826 5.55469H12.4017V16.6639M8.69865 16.6639H14.2533M17.9564 16.6639H19.8079V11.1093M19.8079 11.1093H12.4017M19.8079 11.1093L17.0306 6.48046H12.4017M3.14403 9.25777H6.84711" stroke="#5E5E5E" stroke-width="1.85154" stroke-linecap="round" stroke-linejoin="round"/>
</g>
</g>
</svg>
